<mxfile host="Electron" modified="2024-02-20T00:17:57.342Z" agent="Mozilla/5.0 (Windows NT 10.0; Win64; x64) AppleWebKit/537.36 (KHTML, like Gecko) draw.io/23.0.2 Chrome/120.0.6099.109 Electron/28.1.0 Safari/537.36" etag="q03H-8xcb4pPnp82vLf5" version="23.0.2" type="device">
  <diagram name="Page-1" id="KjUnxgAa9ldIBCReUO4n">
    <mxGraphModel dx="1295" dy="758" grid="1" gridSize="10" guides="1" tooltips="1" connect="1" arrows="1" fold="1" page="1" pageScale="1" pageWidth="827" pageHeight="1169" math="0" shadow="0">
      <root>
        <mxCell id="0" />
        <mxCell id="1" parent="0" />
        <mxCell id="kdmqwW39wh9tZSWkGwI6-15" value="" style="shape=image;verticalLabelPosition=bottom;labelBackgroundColor=default;verticalAlign=top;aspect=fixed;imageAspect=0;image=data:image/png,iVBORw0KGgoAAAANSUhEUgAAAi0AAANcCAYAAACT4J+iAAAAAXNSR0IArs4c6QAAAARnQU1BAACxjwv8YQUAAAAJcEhZcwAAEnQAABJ0Ad5mH3gAAOrWSURBVHhe7P1BaCNZnu+PfvV2F0xXvVrcm9Ri0n0x6S4U2CKnFrUZbjIkj+528qTG0CTOK9VtKndv0bX4Y60aleiVRMNU83jQi5xXU9KkSRr8b6lJT82DpMdDzaIWPcY2oVvlxPzH/+FSZN0H9aoSLy/o/X4RJ6SQLIVOyLIiZH8/cHwi4igiToTCOt/4nXN+v8z/+B//o4s58L/+1/8yS/Pn9u3b+J//83/iP/7H/3jpnBBCCCHJ8H8x+bXGVpBMygkhhBCSHDdCtNgIEpucEEIIIclBS0uMnBBCCCHJQUtLjJwQQgghyRFjIO4Bnj85wCtv+RbuPn6Au96yz9n+M7w4PZelJazcf4h7y/72gCQH4v6H//AfrIVJVH55Oqjnalg9bCBvthBCCCHEDmvRcvD8GV47Royc7ePZF8B7D+/BXxXBcn4Hjx+ojBFx8+w1HFMWwNlDhBBCCLkM1t1Ddx+ErCfLy7i1ZJaF5XsPjWBJJ7aCZFJez2WQKZVQymjeRrskuSzLok+75K37qYRgs9Kp50Zu9/fJoVQKykPHC+j8AblM9eJ2Qggh5AYx3ZiWAxevlpYHLCl+99ETPHnyEkvvDVpZksZGkNjk24ctFJvHcNwuXKeCiuOi220Bu0ZNrGyiJWXdriTXQSWkMrLbh972VtFsCMg34NaAJqr+fnq8Sh0dU0wIIYQQn/ii5eA5nrxcwnvDg1ZwFw8eP8bjx3dw/sU+zszWNGAjSGxyj2IV21ldWMPWhrcQ4kSEjLG0OGUcma2TWUOtHIxyWYEDF6dmzSP7Mxx2K2hwIAwhhJAbTCzRomNXVLDcHxqvMshdOLfOcZYi1WIjSGzyaDqoP3JR9awlvsVk2KhCCCGEkOmxFi0Hz5/4g22NYDl4/hwHXskZ9p89w35PpBzAPQV+kKL+IRtBYpNHcwoXDlbMWqdeQdMsXxqOaSGEEEJsZw+FpzsHhKc9h8vTN+V5VrOH/u7/9p9QPgLWay6e4hGc8hpa3U3sZgo47m0znULFIorNprf9cBuo5xxv3zDFVhcNlJApqLwpyrEaQCkDb3W9Bld29DqgVLQ4x1hrsYuIEELIzeVGBExMj58WQgghhEzLdLOHFgwbQWKTE0IIISQ5boRosREkNjkhhBBCkoOWlhg5IYQQQpKDlpYYOSGEEEKSg5aWGDkhhBBCkiOGaAnc9GsKfLQMoYEUn4R9tqQDG0FikydHG6VSG516CfUF8O/vx1nKzaiuGhnbeBnWlKizGq3LUOyoFDPb72HBMHHA6NuoT7uUwLOw4N9DIveMRGItWg6ev8TSfXXTL+n+El4+G3bVf4b9L85xayUUSTEl2AgSmzwxOieAs4JTF1gdjhyQQjTOkltbM2uXpF3DzpbGeDKehq/UUY2IklJU3Kcstg8bWBRXOTP9HhaNfAPdC4G+0kO7NHvxO+mY+cahCUEyR1L+PUximnt2Fd8t6WMtWqKiPHscuDi/8yBVgRIDbASJTZ4YnlrRyEZ9j7tR+NGnS6j3IktnkAu/LkREo5ZCP4q1lzT6tKV1p1NHLtgvVx+MnTRwPvs3F+86Ck0clR2zb7iu4XoOR9qOipo9aLkp1euSpEJe/R2Um2U4pkyvI6jq2CjdHtPWZcp7HUXU9zB1PfUj/f1yes+GPzBEz8pTD3334X3C9dTPDVz30Hck92XC6Qzh6xv6ngbOd/H6RjHpGsJR3i9EfB+6hv7/n1/HQrOJgikbqOuEeo7+HiYcs/f/N+p/b0w9TT303l8om8i038N033vk9xB5vlA95X+l7u1r6hvjnvXrGf09TF/Paf8frifTjWm5EOX5AM9fLsHx3eOmDhtBYpMngfdwS8PdLAQN6tCPwAjyDRe19SbKbhA5uouq6/Qf9Iho1J36rhfF2t+vCjSPTUkU8s/qhOIuVV0UysF+UlZx4AZlckzXmXwNSr4hn5e3NPVA7O8bWDn0n7gSqqcLp2J+XCZEzW6XpC7V0H47ZXg1zW7jUNZrxVq/roFHYq94TJTuS9RlunsdRdT3cJl65kxEc3/fqlueGKJC71ereITyTv+718jovYYvu4pqK6iLPBOPQhautnwH4e/o2CYgxtD16XPtuZY2ZQNxwULXHsGkawiez2YhY+6PHHfXv47B5yz8/5dHQ9ZbRfWAHZSHnuuIeo7/HqKOKai1Q7aNsrqNraf+P+i1HQfX7mJrp2bxf3uJ72Gq7z3qe4g631A95X+l3FxHzTX3LeKeja9n9PcwXT2FKe/LdSW+aBkR5fls/2ssvRcVRDFZbASJTZ4E+qC7taL8M7VQLLbkoQ39GEUi/4C9yNF6HGmIdoOfnPHRqLMbDnaCMi88wdPJ5tH2LtAa/JHsNe6dExwfhawXckyRYP2qTENnD+5WuF5ZbD/dgrsX/JePi5rdxi5aoVAI2t3TxeFlbOZT12XKex1F5PcwbT072HO38DRUMe/H17KbrlgNC7+n2HL35Ig+u/Lj3X8mQuQ3Ia+qpkzE+lr4OxvD8PVJo/u0tm5WTuEehd9+NaTGEXZ61x5N1DUoGo7Df4bknjb0s8PP2fD/3zii6nm572E0k+vZv/YsVteOcTLpll3me5jmew9x8XuIOp+UrQUR+4Xw/8ok5lpP4ZLnu27EEi3jojx/e/4Kpy/8QbovTnV5zEDdhLARJDZ5EqilxSk3UXbkh71ZkIfWzkqhjdDo8S/Dqn4oGrVncQjKbN+uolnrWUr66Sb/0/W4gnudLtZ1KNZI2qVBq8/gC63/xho8Ky1UJlpFJuIJ/v4xNdmJ1fHXcCVMXc8FIfL60vS9RzHvel7B+RaYGANxx0V51vEuZoCupPsrt7ByPwikmA5sBIlNngQ9S0urhqLX+NtaWpqohJ9sfQvf1D1F1Y+NRq0mU1tRFELfBELdCXJQVIKDZjfgzLox1mMOve129uSqNib9GOWxOfQP741bGNNBrIJxTFGfqetic6+/lM9UpX77Zn0Ck76HqeqZxYazg1q4otrfHxrvM54jlMM76lu4syFH7ODkOCSq2zX0erGEqWZsXHjO2qj1IpRe/N7tGXcNUej5dge/297/30X0GfS7nKLqGe976B8zinj1tOIS38PsZ+pEnW8FznHo2sP/KxOIU0/772Ge92XB0YCJk9Mfu7/76KPuRwPpd90/DnzmX7p//5txZf+je3Z2llhSvvnmm5nkSdAqFrutVrFbbJkNE3G7tXX5fBEaDNNP6zXZakpr6/3tcuyi5Os1LdX9QvtIsj6n1K+/X7Fb884h9dYyt9ZdDx1T3l673ukiuViX3vGUgfNJCira2+5/thXcg971t7zrvbCfIXxv/HvibR1Rl9C9maouNvf6n6Suf2Nxr0JEfQ9T37OhuoaepShaxXV5BkPPWlAPJVwXfVb1+KY+vfOb1P8eJjDwnMkzVtNzBM/a0Pcu6eL9vsj4axjxTITvy/AzP3zPwtc/UJGoek74HsYcc/h+aurd03H17G3371///yL0HY5jyu9huu99wvcQdT8H6qm/l0Edo+/ZxHqO/B6mr+fU/w/XFEZ5jpEng7yRl/aw6rg42WhYjnnQt/gaVhdoei4ZQfsTZHZ/iG7jntmwWOgb4kk5gWm2M+Q6XAOxQ6cqo8HfzLRzI0TL7du3rYXJpHwR0G6NYMC+qPLr1Sd+g+jUP0Zt9cOFHP+jZnEn6BbQ/voFvIjrcA0kCn2500Gv/hp/KxcDWlpi5IQQQghJjun8tCwYNoLEJieEEEJIctwI0WIjSGxyQgghhCQHLS0xckIIIYQkRwzREhHl2YvuHJQ9wbOUhXm2ESQ2eSL0YmCM8+kxpW8VYZrAXjo4Mbo+U9B+F6hmJD02G8hioTPc6ujIszrRr80Qc/VB8bk8X95zJs/bidlGCFkoYjiXi47yvLRyv+dg7mHIxX8asBEkNnkimBgYraJZv0B2isjDKnRCgb1sW5pOHY+CeEZDMYum5uRj4LtfA5Uu8NABPv3MFJDFQR0WehE9Y3uPnV/kYXmuDuT50uesIs/bP8pzRwhZOKxFy8QozynGRpDY5GljWqtHp/5oIEja4FTOUOTTzGDk4c6evKQGn81uozrsTXMavpL0/k/85dUP5c+uv0wWh46vVrxg5LYCJDKK7hXwudTxx/p8KfK8LUtlaW0hZOGYbkzLhSjPwPnpi9R2D9kIEps8bYyPPBxNdnVE5FJDVOThU1d+6EOsyIvrxABqk/hu8Jh4UxIbk4XBE85OGc2yYyx3liIkKoruGNqlqoicUenjyef8dug5e0sSh6kRsnDEFy0jojxj+R4emq4hTXfOv0CadIuNILHJrw35MpxKYE3JDMTGmHnkYXKt8YSzqOZiy0WtWIPbvbrunnyjIkJnVPqQzyghN4RYomVclOdh3lpKV9+RjSCxya8HgYv/wJriDobaj4g8vOI4ZsknVnfAON4cPCa+k7TqL5L041laCk00Cw7KTRHDV9jdcylLy1tDz9m3kujFgJCFI8ZA3HFRns+w/+wJnvemEx3APQV+EKVq5oyNILHJrw9mAK6XHLib2yZqbfRMpOwGcNIrbGMXm0MDgGNGJVZ+JOlzf9EbLCnHJItD39LSQtELr59SS8tfiRL+SgdQKZJ/JyKG4piQhcPSjb9Odz7AK7Pmcwt3Hz/AXW9ZhcsLnJ57K7h19zEe+AU9GHtoGlRE9GNjBBRbXTTyUWVmJZLA4hKeeXTxmIPHC5evo+YON1D7KGUO4bhxzPXSgPz2Hd/Cgr8EHv6ZjcmC0amXsLcq4vdkAw3LLz4cHyvgymO/fJrRnyqfv5afvb8yy4SQhYGxh2Lk14tRouWSLHhUYjIdXnTcTZ331VjI4I6EkMWBUZ5j5mQ8ixyVmBBCSPqhpSVGTgghhJDkmM5Py4JhI0hsckIIIYQkx40QLTaCxCYnhBBCSHLQ0hIjJ4QQQkhyxBAtEVGeDZ7zOfOZvt+W5LERJDZ5IqQqynM4LtF05wyj0177sWf0OmZ3bEIIIdcP64G4B8+f4bVjgiae7ePZF8B7Ic+46nzuAHfxeNhBi4Gzhy6HN620MavpyUP+WNQpmMWUn3Yph5Oy8c3SqSP3CHh6GDimmwZTj7X++T2fHxuNK3NQRgghZHGxtrRERnkWEfP10v2xgiVpbAXJpDxtzDvKc74RciaX3cCWfay7CIqoORWUaFohhBAygenGtAxHef5WXeGe4ZnpGmKU5/kw7yjPA7Rr2HE2LmFl6bO6Leep1HFFIWsIIYRcE+KLlhFRns9en+PV6Svcus8ozwvBZaM86zibioOnM+vDyaO8tYMarS2EEEIiiCVaoqI8L6281+s+uvv2Es41impKsBEkNvn1IHDfH1hT7KM8K16XlAgW91JjWS6S3X4KZ7eOU7NOCCGEDGMtWsZHeQaW793B0qnbWz97LSLmLbOSAmwEiU1+fZguyrPO9nHcKrpGsFycfTRFlOceWWxvuqjsmFVCCCFkCEvRcoCvNcTzq4PelOaDgZDPd/Hg/hJemrIX52/3B+2mABtBYpPPn/404EKzLzT8QatRZVGIOPCsLC5q60W0usNRoYcETTWYsdTGrkblbRZM2cUovcA3cI/eQK1sFzCxXdIZTHo+M+05X8YWxoyhIYQQcuNh7KEY+fUi6CZilGdCCCGLwXSzhxYMG0Fik18v1OIyQ8EidE6+R3GTgoUQQsjVQEtLjJwQQgghyUFLS4ycEEIIIclxI0SLjSCxyQkhhBCSHLS0xMgJIYQQkhwxxrRolOcD+DOdb+Hu4wfwIw2dYf/ZC5yqJ/+ApZULDug4puUytKHxEsvOboxggp8B1Z+a5Q+AyhOzTAghhCwm1paWg+cvsWTc9D9WnyzP9kWuGFSk6HYv3cdKOJhiCrARJDZ5YnROAGcFpy6wauuG9tNfAQ9Fj1YkPXSA335sCgghhJDFxFq0jI/yvIx7D0JWlbMznIeDKaYAG0FikyeGp1aAEzhYMZsm8v6fvX08Vn8MvGmWI6jngExG8rqfaxpwVtcBcmZ7ryy0LbxfTpYJIYSQWTLdmJbhKM8hzs7OsSSiJk3YCBKbPAnUdX6m0ESz4KDcLMPJjHezP5bPfyOiRYTLBLYPAQ0YXRaN1O1Kkvy4oJ1TPiUHWGsNlpVOgUNZXpfy3n6S1soULoQQQmZLfNEyIspznzOcnS+pISZV2AgSmzwJ8o0u3FoRNbeFYrElgiCmQ7jPH8t3Jmoj/yOzYTI1ERweWREfkp10gI4IkKYok3Jwcil7WpNtu2Zd6O0nlKXsaMczxBBCCCEzIZZoiYry7JHCriHFRpDY5EngBSksN1F2Cmh6cX9iWFra7/qC5Zcfmg2XRBSM7ZCabNA1RQghhMyIGANxx0d5Djg7ewX8IG2S5ZpYWlo1FGuuvaXl0wzw3a/7guXTx34+JdkNYL0ZGuPSAR6VgeKmWRfUuhJQKsjnt+xFDiGEEDIJS9EyKcqzz7fnS3jbnwedKmwEiU2eFP44XP1jKwE+0546ST8FqiJeNPWmeo1HB+Jq4Oay449jGViXU+vYFR3H4g22NeNbwhGia7ItGIh7LALmcNsUEEIIITOAsYdi5MnQQb20h1XHxYm1j5Y5ozOIRLBU5UmaZQBGQgghJMyNEC23b9+2FiaTcjKEESxHZlWnH3UbZpkQQgiZIbS0xMgJIYQQkhzT+WlZMGwEiU1OCCGEkOS4EaLFRpDY5IQQQghJDlpaYuSEEEIISY4YokWjPPvTnZ88GfbRopGex5Ulj40gsck9l/rTuNG/DO2SnDOB8xJCCCEpw1q0REZ5PnBxfidU9jxdssVGkNjk+YaLmgbZmSf5BrrdLloaFChxdPp1XScMEUIIIXPHWrSMj/IMnL0Glt4yK1qG1za+zOaGjSCxyXv0rB8Z5OrhJryNktmuKfAe26nnZD0H/6PBZ8KWExEDudB+9bokC2kQqkf/+BaM269TR87b5tfNtyyZa/TKgqCNZt9cSMCMrUtwbbotvCxF3j45lEp6f/x9B6JKT7q+zh+kTtXBfQghhFxbphvTMhTlefne2zh/EXQPvcD522NiEyWEjSCxyX2aKFQcuN2uZwGpuo5pNLVBrsBx/e3drgun4je02e1DuDUNPajk0ZCysMWmXZLjVUP77ZRxbMrGI+InVI9utwrXselCitgvu41Dt4b1dQcrsprfLGK95uJQPdppmda7WOvve7ht3PRH1SWL7UMNRaCedYPrlPKalOYb3vYmqma/FlAJhNC010cIIeS6El+0jIryfAa8HXQdPb6Pt1NlZ5m1pWUdtadBY63trjS0u9KUdvbgbj0NeayVxvrpFty9YfPAMG3sohVyh+838p5QiKJzguOjkNUjU5DGv+lVJZJJ+6k4qYpw0jIRDU9tXPBa1WUNNRF0/nWKcOtdsGzvhY5egcgUnOqizTGzPxMhVRkIJUAIIeT6Eku0jIvyfOB+jf4GWXh9lirZYiNIbHKfNfsQQFfMmhdAMbBE+MmmAbfZb71YFHlmz7R1ieIqjkkIIWRxiTEQd3yU57eWQgNcRK68PjeLKcFGkNjkPk0UQoMoOvUKsCktaXYDjrvXH+MhdPZcOBuBwjmG65kQdJ9HKPf83uexicrAeA1vDMykgRp6vp1a/O6SCft551YLS6PhW1zC41aG0DEvXjWnrUsUNsfkmBZCCLlRWIqW6CjPy6JiXprt13lMi449KR8VUXMqpssiI0Klat7+s9jeNN0qvbLNXndRdmMLx4Vg+xZq6yJ+jCDIN3S8Rni/KrreQfsDdAtN+bwp9xtp7X5yUDHb/DRisOoFIvZrl+Comjryu2jau01ZLsPpqYIsNpyd3jVWHLd/7WPr4g88dspNlINrDI7nnU+3BwN/9f4G92Xa6yOEEHJdYeyhGDkhhBBCkmO62UMLho0gsckJIYQQkhw3QrTYCBKbfDHwu2P6XSqDieM/CCGELCo3onvo9u3b1sJkUk4IIYSQZKClJUZOCCGEkOTgmJYYOSGEEEKSI4ZoiYry7Ptx8cueYT9dDnGtBIlNPm8SiSptQbsUv05+/KXZX0/8uoTH/MyyLoPxowb97GhZjHMNxFzy02CMqyugd84Y9ezFqhpMHDdFCLkqrEVLdJTn53i5dN+48b+D8y9CZSnARpDY5PMmkajSkfgNc89njG3rJI3bI/U9o15tXQeVmbRq09WlXQrFh9K6RDjPi0W7hp2tkAffAde9WWwfNhDeEokXk6nohT0Ijld1H12tj5ppoolryAfZodjq17Mb4wDTiF9CyM3GWrRMivJ8Sz3MedyFc+scZylSLTaCxCZPjNCb98Ab98Ab+ZDjtfBbsDTovqXjco2EevLtB3aUNNAwhy0YGrm51KtPZw+oBp+Vhq6K3Us3VtPWJd847MeHym5gK4hjeQk8i1ihiaOyY87Zv89jLUzedxcR4foC4fARgzPEgv38cw069Rs876A1yDqa+JBFZWQ95TPesUT8+F9FcH6/Pr374O3sl4UdJg7UM+J8QeRx3RZeDvbR7zrYb+B/xeYaCCGpZ7oxLcNRnn8AvOqplAO4p69w/q1ZTQE2gsQmTwb5YQ9FO+5HlZYf/rFRkKVxeuSiaspcpwKnDHlzj/G2P4Ls6vgWvlPf7VswpC5o9uNUn7quWfJZcYATi7YyimnrMoBaR5wNXDaUVL4h52n5EbH9c/bvs0b41m0XDBCREa6V474HYUkV+QL9Y6rwmGc08cFnKXy+gKZ6epb6DR5Lz99C0Ygt9Qi9XmwZcallek+KaPWOG9yz6PMF91rPqR6ZvfJduW/G6tM8Dv4nXGz1wkBMvgZCyGIQX7SMivJ89wHunL8wY1oOgFu3TEE6sBEkNnkyjIsqHREF2Ys4HTRyfmMWw2o/nrycr9JvSMNvstkNRwRAvy7HtXDE6yvgsnVRS4dtFOsrY0yEaw8/KrbfyPpi1bvGeUcTlxq5GlrB3OdMRkMtHGEndD6ve0gU2EUZKeJEu+B0PxEYPWtbJJPPp+g5/brLdTT6/x/FarCcxerasRHHdsckhKSfWKJlXJRn5e4DM95FkrMELL1lClKAjSCxyZNhfFTp+UZB1jf8GlalofPPJW+y4QCR+qbbq0f4LVctK45Z8jl1cclI2dPXRfG6KtRKddhv7NKOitW1IOLmvFELSe9++umC2JF73hgngIpFxNLMNueLy1UckxAyd2IMxB0f5XmAs318cf52f/xLCrARJDZ5MsgbYqgDfiCq9LgoyFoWemfX/vxK0yxfisG3VXczaPRVRAyN2Qgh1cFJr1Df+Dd7ViCfL2X/KjKlfbNuw3R10XEQXkBKI1guDgadpi5zoL2LY2fF/27nGU18xH6R6NiR4JhqzfIsLA1jcRn/vWhdfGtZzPNZcRXHJIQkgnrEnZz+2P3dRx91PxpIv+v+MSj/4+9Gbw+ls7OzxJLyzTffzCSfJ60iuvKK2K3V1tVrsZ+KLVMquLXuerDdS+vdmhsUhfbxjiHJlF0Ot1tbL3ZDtRB0W7ge6IarOVjer2Off+oW8TdT1C9uXVpynsEyvTeD+8ety8Xz9Y85qszUp1U06/5n/e9a0nqt6/bKQkm3e8cUhsvHPRPFmn/+3r5D19/bL6KeHhfvm1d24fkzSQt7Zf733Xsex11H+BrGnW9UPYPjjTtf77sYd0xCyCLBKM8x8kWmUy9hb6Mxg3EmQdfM5Qb1DtD+BJndH6LbuGc22JKmuhBCCLlqpps9tGDYCBKbfCExUz2dchPl3uyiyxDT54gFnZPvUdycRiSkqS6EEEKuGlpaYuSEEEIISQ5aWmLkhBBCCEmOGyFabASJTU4IIYSQ5KClJUZOCCGEkOSIJVo853JjIjn3y8b4b0kQG0FikydHG6WSxg/qx9Cxov0uUM1IkvzEbCMLx2BMocvT94lCCCGLhbVoUVHiOZcbFcnZcyhnyjQC9PN0yRYbQWKTJ0ZHFIezEs+TrAqW734NVLqSJP/Hj00BmS8d1EuXiyQ9GFPo8ujx6A2WELKIWIuW5XsP8fjBXbM2iMZKvBOULd/DHXydKmuLjSCxyRPDUytqLHGwYjZNJP9n4P2fmBU75AVc3uglr/u5pgGHqdLy5sz2XlloW3i/nCxbMRCpuj8le9C6MCpi8SjUb4t8rlTyPy8VHIgE7BEcK7zdYr9xEbWjojV7080dlJuhGFFyY6wETDgqsewT+Dee7r4o5hqDY1rea+8+5OS+6L5Sj7b3WT/WU2+/euje9G80IYTMnJhjWg7w3OsCeoml9/rxh749PzdLPm8tAa+Huo+SxEaQ2ORJ4DUahSaahaDxs2mgAj4z3UO/An78odk2HnkB92LElEUjdbuSJD8uaDPmU3KAtdZgWUla00NZXpfy3n6S1sqWwmVlE60gMKC6ejeN3qSIxaNRvy0tFJvHXhRkjW7tRwI2QSa9hntUhORJ+0lDPi6idlS0Zi8GktS7WOvvaxXvSM6n7u+DfaouCmU/hvJ090XRazTHkxQOoBl1zHxDluXqpDJ+PTQEgpRrrCd9YFrFI5R3+vdG7x27ngghV0VM0XIXD0Z1D6UcG0FikyeBhuJ3a0XUXGlUvaBvcZyp/WSq7qGaCA4PaV21KdNIufLij6Y0ZL2gxFL2VBvrXbMu9PYTylJ2tKMyYRInIhDMW7pTRi9UzmUoVo3n3zVs9WLyCJMiJI/dLyKitkdUtOYpaMtNbYW+ZxFGM4nSPS1rtd73XtS4V0P0IyurAHo6GLySEEJmSEzREnAXzq1zr1tIeWtpyV8wfHsO/CBFARNtBIlNngRegD/Pm600lM2CNJhxLC0BIl6W3csPxhUFE2rKI8mumoVIOqg/ClkUuiLMTEnamG9E7UViXYdbEULIXLAULWfYfxaeMXTgRZINhMmy5K97g1gO8DXeFlmTHmwEiU2eBD1LS6uGotdw2lhavgJ+G54x9BlwKJmVkBiNRmpeb4bGuMir9KOyvnmbdUGtKwGlgnx+a5LIOYUbGqejEawHg1GPi1g8JRMjJI9B9xsXUTsmKkInDvvIy00NupiUznCU7hnfF49pj3kk33vogtSa5WxYi1tCCImDpWhZxr2Hd3D+QsezmDEt9x/0hYmqlpehMidNkmXxZw/543D1j21T8CPgl78Gnul4FjOm5eETUzaeek7HZoj4cHRUxdC6nFrHrug4lowOtjXjW8LWhpps88okHYuAOdw2BWPJo7y10+t2cdw1FJuF3piI7MaWnC8o20JNVFMhciCrjlnxLVL+MY778Za8bcD2pogUcz7/uJvYzlrs99RBJbRfb+BquzQQ16ldcqTBD9cziw2nf406VmayhSaPRjVUT9lnS+5ncI7492Uy4475/9Tr0bFURmk1C+a6j4Nt6yii4tfT1HWTM5MIIVcEYw/FyJNBGtTSHlalMTiZSZTmK0AasZwIlqo8SewxWQzapZIozssHm2yXcjgpH6bzuSSEXDtuhGi5ffu2tTCZlJMhjGDp9SYUgW7DLJMUoVOZdQCxz3rNvbSvFp3y7AT9SDpInIN8CCFXDC0tMXJCCCGEJMeUs4cWCxtBYpMTQgghJDluhGixESQ2OSGEEEKSg5aWGDkhhBBCkiOWaBkf5Vn9uIzang5sBIlNnmZ0enImE/KjEiKqbBp05kncQ/lxanRabPx9o5imLmlj8a9BZ7jV0WmXZvaMAV/Kc1uV50XTJxfuj85aMjPj+7Q/MZ+vzrAeE/j8sXErwEjqhMwDa9ESFeX5bP8LnN95jPsrg55x04KNILHJ04zGDRoXgyaqLB7qzySDQrOJggqQgZbBNFxmbYBOHY+8mDXdgfhClyOqLovCdbgGRZ0EehE9Z+4dt9iqyHPziwtTs/ONEdOs87+Qz/58Rs+6DZ8BB85UoTIIIdNhLVqiojxr2ZiiVGAjSGzyJAisJEEaeLuUNi5cNuDFNKpsStRTqquB8wJX9sEU1wnRjDt78iIafDa7jSp2L21ZGFsXoW/VCVLIkjEuWrMREP628LIpliNcjA59Oa7DNXh0fLXiOUG0mkUd1CO4plF1HUPv2i0+e9V8LtfdC0Q6o1AZhJBIYo5pGR3lOe3YCBKbPAnUSiLtmZ9aIj4e6U+8IH9yBaAmv5NappGGe0SVXYLsahAJeIgJ0YxPXalIiBV5OdUgjJdhbF081uTaTT1aRazXyuZNXRrLcdGapbbbhxoyQT3Pymc8MSHlnot6bVRHRYf2dpya63ANnrhyymiWHWMxsjlmHptFtaIEzu00cGUN6+tbmBRRQYNHav37UakvR7sUdEENp48nX8e3g8813pLEoW+EXCkxRQujPM8bja4sL5Z+EiESoNaLI/nhD0zkoht6wQajyi5FviwNXf9NPXC3nwgRdcluG8/BagGSBv5pcCMmRmtWfLHgGz3yaOjCpOjQ03INriErqlpFVbEViFY777j5cg3HofhKbRFla6Fo0fMi39Dup1HpQ6vrIITMl5iiJWAwynPasREkNvnckYZIXmJ7FhO1tASoKX4Yx/TlR5VNj76p17Aqb/LBm/rWUPDBcazIW38Y+26EcVjURRt7x0U1ZPFR0hOt+Tpcg1YxJ2JaZFMh6B60tN5oN+FaGb4RSANCFrGZwDVcytLy1uBzjW8l0TMCIVeKpWiJjvKcdmwEiU0+b3SoAERsBCbzesXPFQ0ErD7Zey/YshCMW4kquxxmwKiXHLib49+Mw9GMNUL0Sagyu9g03QIBZqZIad+s2xBRl6CxNxGxO/WS3wBNG63ZKjr0dbiG+PQtLS0U1ZW/paVFyW8W0azU0d7bEWUedH/Nl0tZWv5qFfjqK7Mi+XciYi4RSZ0QMhlL0RId5TmYCv3i9BVOvc+ka+qzjSCxyeeNduvocBTHdA9hS5KIDycnDY78wqvlpRB0He3KZ0XgNAtAST42tix2axfgj5dQi0BtvYjWhbf7iGjGqlp63SAVOOXh5ukbuEdvSLt1z6xPIrou2tVwFBIETvnYlGiXyJhozSIDdHCoH7HZlPVuluw3Mjq0Kfa4DtcwHd443GmmDuXL8nyXUSivoWpZERXDXt1D15hcN+VPRKi8Y6Y8S/6fg0G5hJCrgrGHYuRECbo1Lh8huIf619j9IboN2wY/4ArqMi3X4RqmxIsYvQnsohG7m0pFSAGjgi2q5er3cKuVmMecdj9CyCIw5ZiWxcJGkNjkRFELwWwb2M7J9yhuxm3sldnXZVquwzVMS74h9c/HEyzBlO6Chp0+PhnotgrTLOj4kovO5UbiOZf7/Yy6QgkhaYSWlhg5IYQQQpKDlpYYOSGEEEKS40aIFhtBYpMTQgghJDloaYmRE0IIISQ5YomW8VGeA/f+mp7LWrqwESQ2eSL0Yq2EYs8MoLNPxpVdDfGjEmsd9Rou7zZ+gPa7ZrrpY7OBJIN8v9NGedbne/p5+PFgRGZCFh5r0RIV5fngufpt0e2S7i/h5bN0ufi3ESQ2eSKYWCutsX745zn7xBcfcaMSB4EBZxUvxuPkY+C7X/sRdh86wKefmQIyfy4R5Vmf77nMTWZEZkKuA9aiJSrK890HD3Ev8I67vIxbS2Y5JdgIEps8bfQjAc/H0hIVlVhemUMRhHMolYwHV0G9ps68XVJHpO//xF9eVadeu/4ymT+xozyrgSV4Vvzn5cr9wzEiMyHXgphjWiyiPB+4eLW0nKoI0DaCxCZPG54L9UgrzGyJikrcqe+GIghXgWbgwfWK+G4owNKbktgIzZ3pojyrgaUvfm0tcIzITAiJKVomRHk+eI4nL5fwXs/skg5sBIlNfuOJikq84WAncB2fKeC4Fo4oTK4r00Z5ngZGZCaExBQtARejPHuDdEWw3H84xgKTIDaCxCa/2QTu5oM35KGoxNltHJo3Z69smqB+cXhzKMLud5IYrG7uTB3leQoYkZkQYilaoqM8Hzx/4g/SNYLl4Hm6ZhDZCBKbnIyLSnzZGUxTREj+kaTP/UVvkKUGvyFz5zJRnuPCiMyEEEvREhXl+QBfv5Ls1YEpe4IDXU8RNoLEJp8/wVTh0IwdSf6knaiyq0BnKflWlNFRnocETbU/oykYMNyPzDv8Nh43QrKw+mN59HT6qqZfAe+ZQblk7kwd5XmuMCIzIdcBxh6KkRMl6Caa4TTrqSMkkzRwmSjPSqdewt5Gg+NSCCETuRGi5fbt29bCZFJOZk+n/jFqqx/Oflo0SSkqfJ1+NGbtVuKXTwixgJaWGDkhhBBCkmPK2UOLhY0gsckJIYQQkhw3QrTYCBKbnBBCCCHJQUtLjJwQQgghyRFrTIsXNPH0XJaWsHI/FG9IiCpTOKblMrShEzTKzm6MWRafAdWfmuUPgMoTs0wIIYQsJtaWlqgoz1FlacBGkNjkiTFFQDp8+ivgoUa0laRRkH/LqLaEEEIWG2vREhXlOaosDdgIEps8MTy1ovEAHVi773r/z32Pn+qITQMKTqCeAzIZyet+rmnAWV0HyJntvbLQtvB+OVkmhBBCZknMKc8a5fkAr0Z2AUWV0U/LtGgI/0LTrHioN9qYjt0+fwx8+78BefV9H42cDs0iIKfwBYkDVOUJ0fNpGVrw/amYsjVdFyWly0fBfoJ+9rgGHG7764QQQshlmdJPiwiUZ6/hjAyOOLqMY1qmx/cYuglXREAjrhMuFSwHoih+aee2XMWG46I3biZY39iTfAdwD9Whv0+n7pd1y75o2Qrt55UNfZ4QQgi5DFPOHroY5blPVFky2AgSmzwJ1NLix+wpoNksIJOJEZiw/W4swTKRNXsBkmUwOkIIITPGUrRERXmOjgCdBmwEiU2eBPlGF26tiFqrhmLNRde2a+jTDPDdr/uC5dPHfj4l2Q1gvYn+GJcO8KgMFEPBlcs1syCUCvL5LVpZCCGEzI4Y3UPBmBVleNxKVJkPx7RMT/yAdOHpzgGTpz3rQNwgHkxLnoqTofW8GccSChkzML5lS0RLWYSMss7xLIQQQmYMYw/FyJOhg3ppD6uOi5O0RsIdGrBLCCGEXAU3QrQwyvMVMmR9QWgGESGEEDJLaGmJkRNCCCEkORh7KEZOCCGEkOS4EaLFRpDY5IQQQghJDlpaYuSEEEIISY5YokUDIz558kRS2C9LiLN9PBtXliA2gsQmnzfqWC6WM7lZ0C7JOa/ivB3Uc3O+FkIIIdcKa9EyOZLzGfa/OMetlSWznh5sBIlNPm/yDRe1dbMyL/INdLtdtIpmfWZksX0YM2aSN927rhOUCCGEEHvRMjGS84GL8zsPRsQiSh4bQWKTJ0bP+pFBrh5uwtsome2aAm+1nXpO1nPwPxp8JmzlUKtHaL96XZKFNAjVo3/8yfj1Ga6D4B0vh1IpKO9fgwYvymUclJtlOME5cyEBM7YuwbXptvCyFEWdT5l0fZ0/SJ2qg/sQQgiZGzHHtKjnW+0eeoml98IBEWX7yyU4EZomSWwEiU2eDE0UKg7cbtezgFRdxzSa2iBX4Lj+9m7XhVPxG9rs9iHc2pq3t7p7a0hZ2GLTLsnxqqH9dso4NmXjEfETqke3W4Xr2HX3aH1GWm/yDS8IZBNVc8wWUDHCJLuNQ613sdY/5+G2CQsQVRe16GjoA6DsBNcp5TUpjTrfJa6PEELIfIgpWu7iwYjuobP9r4dETLqwESQ2eTKso/Y0aKy13ZWGdlea0s4e3K2nIQ+50lg/3YK7N2weGKaNXbRC4QD8Rv5wkqvdzgmOj0JWj0xBGv+mV5XLsYZaOajMCkQ24NSsjcWqLnJcEXT+dYpw613wmPPZHDP7MxFSFctQCoQQQmZNTNESMBjJ+dvzVzh9oRaYJ3hxqsvPceAXpQIbQWKTJ8MaVlPiun/NC9gYWCL8lFQDfhV1SdP1EUIIuYilaImO5Hz3gVpf/HR/5RZW7j8QWZMebASJTZ4MTRRCgyg69QqwKS1pdgOOu9cf4yF09lw4G4HCOfa+I6VTf9QLfKhWh01UBsZreGNOJg3U0PPt1BLtLtHZVF41r6IuNsfkmBZCCEkUS9GyjHsP7+DcWFO8MS0XhIkKG1paZomOPSkfFVFzKqbLIiNCpWre/rPY3hSR0uvO0LLNXndRdmMLx4Vg+xZq6yJ+zEDWfEPHa4T3q6LrHbQ/QLfQlM+bcr+R1u4nBxWzzU8jBqteIOKY7RKcchNlM3bEv95+PfWcG85O7xorjtu/9rF18Qce+8c1ZYHKiDzftNdHCCFkXjD2UIycEEIIIckx5ZiWxcJGkNjkhBBCCEmOGyFabASJTU5GEfiBGZ04/oMQQsisuBHdQ7dv37YWJpNyQgghhCQDLS0xckIIIYQkB8e0xMiT4J//+Z/NEiGEEHKziSVaxkZ59qI7B9Ohn+BZysI82wgSmzwJ/st/+S9m6epJJKq0oV2Ke96huEIzJH5dwuN6Znn/+tPFvTQwQEjLYpxrIK6SnwbjWF0BXvwoPVe876gfqypI13HquXx/GgxUvpe4477anwCZqkkf65GuGH125jo47TOgmgE+N6uEhLAWLZOiPC+t3O85mHt4L10O/W0EiU2eBPO0tCQSVdo0zD0fLpY/juowT+MK9WMszYLp6tIuhWJAuQ4q4cCOl6Fdw85WyEvvgHteDb8QI2q2F3ep6IU2CI5XdR9drRjw4kfF/46CWFX9+h6GwlVEE19wJsUpXKwCJ4CzYjbZ8CVQkawrf7z0oT4JV4xGfp/aNfSX8j9VRSb3B/v/iU9/BeQ+MCuEDGItWiZGeU4xNoLEJk+CeVpaeoTeygfexgfe1ofefntv1X5j778tT25AAvExumEOWzA0OnOpd05t2Kb+HR3DtHXJN0KNanYDWzPQUZ7Vq9DEUdkx5+zfy6miZo8kHCJicBZYbz/znfvrgeVn8Lv3LXR+ymnEcBuxF35eesefgNlH733/fEFF/PqHHRgO3J+I8wX1123h5ejzCdNcQ0DHVyunLqzDdHT+AGR+Dxz9e9/SUhcRE1D/uL9dNEKPwDJT2h9cnkT4e73w/25BRyqUkQqX5TlzD39mJ65O5CLe/HvgLbNOyBAxx7SMi/IMnJ++SG33kI0gscmTYP5jWuRHf2RUaWkUxkZBlsbskYuqKXOdCpwy5C15siUguzq+he/Ud/sWDDkfmpNjUV+GmdRFrSPOxqXffvMNOU+riPVePKT+vZwqarbHcd9LsKSKfEn+MVWMjI4Y7r1l906k1p3B86qAUk/F/n76vJTl/JMYfF4GzheFWm7k5M3j4Dl0sdULvaDRzLVuRbR6xw3uWfT5gnvdLPhel73yXblvkeeb8hoET3TKvW+KIPVFlt1+2Z8B3Z8D63/Rt7Rsv+OXqRhxc/3t1e/6wiT/C9km7z5N+SmpvOmXO/+mVxCNd1/M9cWylkllMqKM/N+ACrq2ggVfAf8oKi7/I7NOyEViipbRUZ6xfA8PTdeQpjvnXwyOeUkYG0FikyfB/C0t46JKR0RB9iJOBw2g36iGG7ZI8nLMSr8hDb/JZjccEQD98x3XwlGtr4DL1kWtEiLsnl5pJScRFTXbj3wdNEQqSL1rnDpieAd77tbA9XoN3UQT2ClcDZ9g7nMmo+EUjrAz8Xw+xWrwfGaxunaMk4m72Z2v2Aqincv1N/r/A6PPN/01eKJT/kGKLRe1Yk0EkX331zh2JTXu+cuKChWIMAlTlJ8S0Q8e21J+yVOOYB8lESuZwr+L2P65PGMfxruuz38jTcwTs0LIaGKKloDBKM/DvLW0ZJbSgY0gscmTYP6WlvFRpWcfBVnf8GtYlbd3/3jyJhsOAmnGRPTKrjRg4+Xq4r09qyXqsN/YpR0VpGtBVM15U2yZe9lPvmC4Iq7ifFMe03tWCiL5CyJ0mvoiYGdpST/30OhWRJD9BY7Kvxch93G86/r2EPhTxh+E+6e/lfSuN+aHkDCWoiUqyrMfKPF5L0LiYAToNGAjSGzyJJi/pUXeHkOd8wNRpceJBi0Lvc/LTqhM7iMwDL6tuptBo68iYvKYmPGYAYA2nfc9pquL9v17QSeNYLk4GHSausyB9i6OdRSofn+REcOB48Cc0S5B2luDH9CyFr5YtTZNHIh8MdL4VaDiwLeWXcX5pj9m39LSQtETPpe3tGxKGnjm9FH7ob84d/K/kGuqeF2VZUee+8wndv/H+T8Dla6f/voDSbK+asoICVCPuHbpj93fffRR9yMv/ab79/8SLvuX7t//Jij7qPu7P4bL/HR2dpZYUr755puZ5PNmf3/fLF098jsqvxbFbq22rl6S/VRsmVLBrXXXg+1eWu/W3KAotI93DEmmbDJut7Ze7IbOJOi28LnQHaxK+Hya+nXx+aduEX8Tow4BcevSkvMMlun1D+4fty4Xz9c/5qgyU59W0az7n/W/T0nrta7bKwsl3e4dUxguD9/s8DXKPjXznIysT+iYvfOH0nrvJly8b8Epx363vefPX+9/LnS/w9cx7hpM8otH3M/gGiaeb/w1TMLV/49WrVu0fyi6rf93t4uPBlPtv5tCydfDZX+jV+ZTk+XwPuEyW7z6xt3J47/L/f1I7un/bn/OvxPN85Gmv+x2vzLbCDEwynOMnNjTqZewt9GwfIMMumZiTOGdhA4G3P0huuGOfivSVBdyXVFrnJpHdtGY+Sy4qyDe/zMhVwdjD8XM542OaUlk2vO06DRQp4wjb0Vncsyw8Y+BTresrX6YigYhTXUhxA4V7zq42KxqNxYfYJICaGmJkRNCCCEkOaacPbRY2AgSmzwJGHuIEEII8aGlJUZOCCGEkOSgpSVGngS0tBBCCCE+sSwtXtDE03NZWsLK/YcYjovYLwdu3X2McKgiWloWiTZ0ckPZ2Y03Y6D9LnD4r7Lwl8BD+lgghBAyW6wtLZOiPB88fxIqHxQsSWMjSGzyJEjE0jJFMDdPsHz3a+McSvJ//NgUEEIIIbPBWrRERnk+28fXS/dTGwXaRpDY5EmQyHRnT62oB20H1lHz1Zvl+z8xK3bUc0AmI3ndzzUNRMrtADmzvVcW2hbeLyfLhBBCrjcxB+JqlOcDvBruHjp4juevl3B+egqv82jlPh4O9R3RT8t0zNtPi7qk77tpV+L4WvkMqP5U8r+07h6S06GpbkUbsqKCxJFDyBOp59MytOD7NzFla7ouSkqXj4L9BP3scQ043PbXCSGEXD+mnD0k4uXZazgP70GliT+WBT0hc/D8GV47g2NeOKZlcfC9X256sUMaUzmUEvHy2xPglx+a9fGo2HBc9MbNBOsbe5LvAO6hRrjx6dT9sm7ZFy1bof28sqHPE0IIuV5MOXvoYpTnpZX3eiLl7ttLOP/WX04DNoLEJk+CeY9p8YL/lZsoOwU0mwVkMtMELfwJsCyK4rIRWtfsBUiWg34JIeTaYylaoqI863iXO1g6dWWrz9lrETFvmZUUYCNIbPIkmPeYlnyjC7dWRK1VQ7HmomvVNfQV8NtwGPnPgEPJLiEkshvAehP9MS4d4FEZKGo4W0O5ZhaEUkE+v0UrCyGEXGdidA8F41mUEVOez/bx7IU/pgW37l4YlMsxLdMx7zEtynTB3ILxLMpfWo1p0YG4QWyTljyFJ0PreTOOJRT+ZGB8y5aGvhcho6xzPAshhFx76BE3Rn4z6KBe2sOq4+IkrVFdhwbsEkIIuRncCNFCS8s1Ysj6gtAMIkIIIdcbWlpi5IQQQghJDsYeipEnQSIecQkhhJAUQktLjJwQQgghyUFLS4w8CWhpISQdtEs51DtmhRCSCLFEi3q+ffLkiaSwzxb14aLbQunZYDDFpLERJDZ5EqRqEG67hEwmM9rhXFSZBTrNepr91BVuLjPbxiR+XTqo5/TaZ1kPnUKeMemx2UYmo7Pf6ujI8zgQx8oW8xwP76tOFyvO09nMpvOe2Vk/LzeIMd8RuRlYi5bIKM9LK7hvojs/fnwfK0tme0qwESQ2eRKkytKSb6Db7aJVNOthosoi8Rv8QrOJgv6QD/wSmQbIrF1Eyh+52KqtmfXLElWX8XTqj+BW1SnfrOohfPor4GHXj5r90AF+y6jZdpzC9aN9aqDy+OhzPOIhVqeLh7Oa/5/dxqH8r8z0eblJjPmOSDymflFMGGvRMj7K8zLuPfBjEHmcneF8abm/ngJsBIlNngTzt7S0UfLeAv03wZI82Ff5Nhg0+Cp4vBR4s/PeRh2Um2U4QX1yQwKmXZN9G9gwq5dlbF08xt+X7PZhDCd8lrwfcs63+mPgTbNMoun4asULVG6tMcLf7dAPec8q4qdRFpigLFevy3NhPjCwXwyLSuR+oXrK/0LdO7ep74R6jqJTz/nnqAdWUknDLw2eBdFPuaAyA5aO4DP9ugb3RMvDyxOxvfah7yjyfJH3ZfD69H+6Xx5RNsW99hi3n9mu5wjKevc6Au9ac1Ivrac8D23v+wzvO+b7M/ey93LmpfA9jbovyRNzTIt6xdUuoJdYei8kVEKcnZ1jaTlNkoWWljh06rtw3KDhrgLNY1NyNWRXx7xtem+jLmpFESaBiDjcDrnpl3+8ioiaGYqFsXUR5n1fBvj8NyJaRLiQSLxG2CmjWXbMD7KNWNAf6Er/u3UdVHphzqXskYtq8PzJ8+hU+sfU81UcDXXhl1ddObdfpA8Tqq1gvyrcR1EWwxBj9xuqZ9UVQb+OmqthNqLrOQ4V263iEco7Tu9/zHUqvcatXZLtIRFflXvjNV4Dlo4stg8HLaxqldLyZkG71PT+SH12La7f9toHvqOo8024L95LT6jsOBTefmzZdPc6cj/9rdP6Hwffg4utndqAMBtFviG/j/rEaT3leSi4VX9fd0/OFvH9yRPTkPVWUSP4B+WhcC1R9yUFxBQtd/FgVPdQjzOcnS8hZZrFSpDY5Ekwb0tLdsPBjhOo7AKOazPqxx9Hviz/vH1Vb/OGoXgi4mlYxMyAiLrM/b4EfP5Y3hUcqduPzAYyDm2EtfEqtgKxezj5O+rswd0KfZfSgDytrZuVU7hH4bdREclHR9jZ0+eigz13C09DJ/Aaz5DJbVca0eB5ifOzP3o/qctatV9PEQ59oRBVz8kUq/3/o+z2U9PotbGL1oAFMd9oSeXsX7mLIkD8LjURNg27/9WR1x75HfW5eL4J9yW/CSnsl62Frnds2bT3evJ+/e8hi9W1Y5zYfH1rtd6LW3Ez9GVd5vuLui8pIKZoCbgY5dkjhV1Dio0gscmTYO5jWkx/e6CybRT/9OgbVA2r8qbWO595S5jEqauRqP1/LD8q9WX7ZyfUZa73xdB+1xcsv/zQbCBReJYWeQNvFuSH1utWtHkDnkCxZb7zfrIZ29IuhSwD8rzYDl+Zdr9p6wmsTzf25wqY+tqjiLwvvsUh2N5CJfS8RJRNe6+n/o7mTdR9SR5L0RId5Tng7OzVxY0pwEaQ2ORJMF9Lizbcl2384zL49uFujn8j0z7coG/Ve6s1/1ReVGrPTB7mS7mWKjKlfbNuw7i6XPa+TFGXTzPAd7/uC5ZPOYNoEn1LSwtFr4GwsLRkN+AMCNA2akHUTnmiNsf+YGex4eygFn4odKyHN+6qg5Pjtf6Ymra8DVv1JkbttwLneLdfz04dlZ4pIqqekzhCOXwRatVwNuTq9Jih8yntXSD0Nn8cmALkukO9NVMSce2R31EU0fclagr7+LJp7/VlvqNpmPz9hVHB3+8WnIHYv0rUuZxd+mP3dx991P3IS7/p/v2/XPzMH3/3u+4fh7YF6ezsLLGkfPPNNzPJ583+/r5Zmgdut7YOdTbYS8WWKRpR1i+PKrNB9y92R33cra33jrdec83WgPB5h/f/p24Rf9O9sMtERtXl4vWFry1cRz+tD503bl3+odv9SNrcgfSBKSNRiIDt1lq1bjHOF+/Wuuvh706O0f8OW/Ldhb/biP+J9ZpsMbT0GMH2YreonzM7iq7ql5nUe7Yj9husp5QVw89ZVD3H05Jj6HH6+4We/YHzSQpfX/h8sl3eG8y+F/9XBveLwPraw9/RpPONvy/D30P49yWqLOqY0YzZr3dt/vfZ/z0Z/ZsY0KujHsS7d6H7odsivz8hfL9DFxB97clDj7gxcnJVBF0zw9aSS9D+BJndH6LbuGc22JKmupC46DROecWUd8xGqvrhrwLvWhuXe071rfqkbGGRIiQlMMpzzHze6JgWRnmOT6f+MWqrH6ai4UpTXcgio4JaB3D6a/IGfKkxEdol4AQH0+40PqBkAaClJUZOCCGEkOSYcvbQYmEjSGzyJGDsIUIIIcSHlpYYOSGEEEKSg5aWGHkS0NJCCCGE+MQSLaOjPCvhSM/PcWC2pgUbQWKTJ8HcB+GauCLTRWue3p9JaoJ3qUO3aSIrR+0387KvgN/qdik/MZvCXMUxCSEkBViLlsgozwcuzu+YKM/3l/Dyebpki40gscmTYO6WlqmjNSsahyTuFEwVOvEjK3v7RUaAnoKTj32HbkFk5U8/MwUTiNrvKsra/xW4K9tzObMhxFUckxBCUoK1aBkf5VkEzWtg6S2zsryMW3g9Ii5RctgIEps8CdIy3dlzkd5zix5EXO1bR/zy+BaayMjKPavP0HG9qKiBq3ZTPhwBehq+kvT+T/zlVfVEu+sva2Mftk6ot1pdb+sOwrj9lKsoy/8Z+CuzPMxVHJMQQlJCzDEto6M8L997G+cvgu6hFzh/e3QE6KSwESQ2eRKkZUyLukh3e8FANDaFi9q6WRU8F+pTWGiiIitjZROtcGTXwArjxQEKguKZ8oEI0FPynWsWDG9K0q4SbeAf/o2sO95m/OcPgNyXchtMEMNx+ylXURbFVRyTEEJSQkzRMibKsyy8fd90Dz2+j7dTZWehpSXVREZ5PkEliKzslGETbeTKUOFyVxp9tbAw6jIhhCRCTNESMBjl+cD9Gn3Tiiy8PkuVbLERJDZ5Elzv2UOBy3xjLemGIytL2SMX1cCS0m1hqmE2cQgsKQHfSVr1F3ssf2AWQkTtdxVlUVzFMQkhJCVYipboKM9vLS35Cx5neH1uFlOCjSCxyZMgXZaWY+97V3QsilWg1YmMi6x8ChcOgqj5nXpFPjmecARonykiK6vx5HN/EdBBqpv+oqKzbtTC8v4T3+Ly249NgRC131WURXEVxySEkJQQw7mcjmc5wCtveQkr9x/iXmBdOdvHsxenCLTKrbuPMTxml7GHpkMtLfMTLmr56Mc2CSi2un7cHB0AG3TTFGuoHZdRRg3u4Qb2ovabSGBxGZx5NBgbpYhis4njULyVcPnFOCz7KGUO4bgfxggG95WIkXd8CwT+Enj4Z98S8flj4E9/KwsfABURLToQVwX88j+Yga1j9vO4gjIVUIf/alaUcPlVHJMQQtIBPeLGyMlVMVq0XApGViaEkGvHlGNaFgsbQWKTJ8HN8Ig7jX+XaDon36O4ScFCCCHXCVpaYuSEEEIISQ5aWmLkSXAzLC2EEELIZGhpiZETQgghJDloaYmRJwEtLYQQQohPLEuLFzTxVCc2D015Fg6eP8GBNx/6YplCS8si0UapBJSdXextNCynDH8GVH9qls3UYEIIIWSGWFtaoqM8P8fLpfujy1KAjSCxyZMgEUtL5wRwVnDqAqu2Pk4+/RXwUPRvEEE47HyNEEIImQHWomVSlOdby4FpZdDFfxqwESQ2eRIk4hHXUysa+afvkXYi74ccka3+GF4wvgnUc0AmI3ndzzUNeLXtADmzvVcW2hbeLyfLhBBCrjcxx7SMifL8A+BVT6Woi/9XOP/WrKYAG0FikyfBvC0t6g4/U2iiWXBQbpbhZEoY8I5vw+e/EdEiwmUC24fw4gmVRSN1u5IkPy5o55RPyQHWWoNlpVPgUJY1wHRvP0lrZQoXQgi57kw5e0jEy7PXcB72hUt/TAtw69Yt4O0HA678OaZlcejUS9jb2IRbAxp2fvj7qMt7jdHzyw/NhmhEI8ER8RGMmwnWN/Yk3wFcETZBD1VHRImWdVWgyCm2Qvt5ZUOfJ4QQcr2YcvbQxS6guw90PIufnCVg6S1TkAJsBIlNngRJWFqcchNlp4Bms4BMHEtLEFTQUrBMZM1egGQZI4cQQq49lqIlOsrzAGf7+OL87Quzh5LERpDY5Ekw7zEt+UYXbq2IWquGYs1Ft2vpXl+DCH73675g+fSxn09JdgNYb5pxLEoHeFQGiqHAxOWaWRBKBfn8Fq0shBBynbEULcu49/AOzl/oeBYzpuX+A/R6fw6em+2SXpzjzpgBu0lhI0hs8iRIYvaQPw5X/9hKgM9U10r6KVAV8aLJYiC2DsQVXYKy449jGViXU+vYFR3H4g22lW06viXcW1WTbcFA3GMRMIfbpoAQQsi1hB5xY+Q3gw7qpT2sOi5OrH20zBmdQSSCpSpP7iyDLBJCCEk3N0K03L5921qYTMrnjVpaEpn2nFaMYDkyqzr9qNswy4QQQq41tLTEyAkhhBCSHFPOHlosbASJTZ4EiXjEJYQQQlIILS0xckIIIYQkBy0tMfIkoKWFEEII8YkvWs728exJ2GeLjwZU9Kc9P8eB2ZYWbASJTZ4EaR2E26nnkMnkUO+YDSGiyqahXZoilMAVcS3q0qkjN8PvhxBC5kVM0XKG/S/OcWtlyawbPIdyJgL0/SW8fJ4u2WIjSGzyJEirpSW7fQi3tmbWBokqi0cH9VwGhWYThUwGmYFoilHotO26TjSaIYtSl0nnk/JHLrZm8v0QQsh8iSdaDlyc33nQizcUoO78ew7llu/hDr5OlbXFRpDY5Ekwd0tLu4SMNoReGnqT997QTVmujlOz2WNM2aDVpY3SqOOOoVN/BLfaRbdrUtiz3Lh6evUIgj3263NZ0bAQdbE5X7sm+zawYVYJIWSRiCFaDvD85RKcEc5uvz0/N0s+by0Bry08os4LG0FikyfB3C0tK5touaYxdB1Uem/xIjgcF9Wgoay6KJSPJ5YNWl3yaHRd1DREswXZ1QhrwLh6ZrdxqOcoSuMc1Odw+9Lu/ReiLhPPJ99TRUQNPfIRQhYUa9Fytv81lt7rR3VeJGwEiU2eBPMf03KCimPe0p1y34lbexdoheIQ5RtoFc1yVNllyJfhVExdJOUGBmGMqedVsTB1GU+nvgvn6eVFEyGEJIW1aPn2/BVOTeyhF6e63B9w+9bS4BiXb8/HBFNMCBtBYpMnwXwtLf54h57FpNtSh7MJoeM2alg9DOriYsvdM10d867notQlmlNXo3f7QseP5D3lQF5CCEkIa9Fy98Fjf6CtpPsrt7ASCpi4LALldW8QywG+xtv9YIopwEaQ2ORJMF9LyylcOFgxa516xQtg6JHfBCqh8RGdOipBYVSZx7EXFVzR8Rhla1OEGWjqJQfuZmAliKjnCNqlTD9atMeX0vBXkSntm3UbFqEuFwmfTyN4+0LHRPJ2LSN4E0JISog3EFdnDz27aGnxVMtLE+VZI0CPGviSIDaCxCZPgvlaWvIob+30BnE67hqKzYLpfsijUZXmOWgsHZ2BohGZ9W09qgzIbmzhuBAccwu1dWl0Jw5IzWLbsyboGJgiWtLQ9se+RtVTyWLD6ZdXpD7hcbPAN3CP3kCtfM+sT2JR6qJMOp9aamhpIYQsJvSIGyMnSRB0h8zQKtD+BJndH6LbsBUKAde8LoQQknIY5TlmPm/U0sIoz7OlU/8YtdUPhywQyZCmuhBCSNqhpSVGTgghhJDkiDmmZTGxESQ2eRKk1SMuIYQQMm9oaYmRE0IIISQ5aGmJkScBLS2EEEKIT3zRMjLKsz8V+smI6M9pwEaQ2ORJkMwg3DZKpTY69VKMSMCfAdWMSY/NNkIIIWR2xPfTMiLK89n+Fzi/o07nhqI/pwQbQWKTJ0EilpbOCeCs4NQFVm19vn/6K+BhF6hIeugAv/3YFBBCCCGzIZ5oGRPlefneQwRBntOIjSCxyZMgEUuLp1Y0ok7f0+tE3v+zt4/H6o+BN81yBPUckMlIXvdzTQPeYjtAzmzvlYW2hffLyTIhhJDrTQzRMj7Kc9qxESQ2eRLM29Kibt8zhSaaBQflZhlOZgqvqZ//RkSLCJcJbB/Ci9NTFo3U7UqS/LignVM+JQdYaw2WlU6BQ1nWQNG9/SStlSlcCCHkumMtWhjl+WZYWjQ+jR+XpoVisSWCIKbH1c8fi74VtZH/kdkwmZoIDo+siA/JTjrqdA1oijIpByeXsqc12bZr1oXefkJZyo52PEMMIYSQa4q1aImK8px2bASJTZ4ESVha/Lg0BTSbBWTiWFra7/qC5Zcfmg2XRBSM7ZCabNA1RQgh5NoylZ+Ws/3nOFt+gHtDZpdx2xX6aVkcdNbQ3qoD92QDjW1L2fBpRv78A/D+T8z6Y1l+4i9HIBoJjgsEp+mty3LOdA95Lu51LEuwvuIvHxWBbsPbzdvvuAYc6o6EEEKuJfFnD42I8ny2/yxkgUnf1GcbQWKTJ0ESs4f8cbj6x9bO8Zk+GpJ+2p/2bPH960DcpuRlESBqzRlYl1Pr2BUdx+INtg0LGENNtgUDcSlYCCHk+kOPuDHym0EH9dIeVh0XJxuNngUkVRirS1WeXMYZJISQmwOjPMfM541aWhjlOYQRLEdmVacfBV1EhBBCrje0tMTICSGEEJIcMce0LCY2gsQmT4JEPOISQgghKYSWlhg5IYQQQpKDlpYYeRLQ0kIIIYT4xBctI6M8H+D5E9/x3JMn6XM6ZyNIbPIkmPsg3HYJmUwmnlO5GdAuxT1fB/Wc1jMXIxK1Beogb0Kk6k79Y2Ryf9AxwQPEv4bxtEtVZEr7Zi0uU0TpTuh7TwRzrQNxrq6EL+UZle8xo+mTi/dV6zFcifYn5vPVOdSPkMUjvp+WEVGeD56/xNL9x3j8WNL9Jbx8tm/jpmNu2AgSmzwJ5m5pyTfQ7XbR0qBAc8EXH4VmEwVtNAd+qXX6df2COFA69UdwqxpyQB3/z4iTj4Hvft2PVP3pZ6YgzD5q5e+xvvWjkLfeqGuIYvz15Tf/AmgeTifIponSfUXf+yyF3MzQa53fA45iqyL39hcXp+drPcKOh5T8L+SzP0dNg2sRQi4QT7SMifJ898HDvhfc5WXcGtQ0iWMjSGzyJEjHdOdRVo1R2+ITiA9tML0U/Ih36shlgqCNeh5JuX4Dn90+HHA0NxO+khR49F3VUAShQEcB7X9DE3+B6vY7ZkPENSg9C4amUAM+4fqQf08aru+xs/el2RCDaaJ0R+HVNbiGixYKL8imKcvV656VR7aiJOs9Ieclc/0Dlo6Lz1FwPC0PL3tMqMt4/Pr4+w0JqamOGRzPr3ennvP3t9g5fL9mbikk5JoTQ7RYRnkWYfNqaTlVgRVtBIlNngTpGNOSxcbWOtZrT0PO5rLYPmyhiDX7t/kRZFfHWEqy2zjsuqgVa3ADMXC4bR2LaCq+k8Y+zJuSTvzFgPbuv8ur8w8H3prHXoOysomWa+rvOqgEjdrE63tH7vkbONr5qi9kLPAaxMtG6R5ARMUjF9WgjlJnp9JvaLWxrjiuKeui6pY9r8aiutCQ9VaxiFZvXxN8c8DSoc/RoIVHg3ZqebOQMceWc+6qoIuuy3hUGFXghL8HuUe9sqmOqdfXf/6zG1tY1wCjFkrauz5zvplaCgm5AViLFqsozwfP8USEzXujgg8liI0gscmTIC2O5bRhPnJPZcl/w/Ta3vYumsXNi2bvOOSlYa303zxzqX7t/BInx8C685/MuiHyGk6k4TVlTrnvFM+C7OobwNF30Ltuy6WjdF/gFO5R2FoiYujoCDt7eo0d7LlbeBpym+w1yDMygRVbXRx6xxZh01BBF1WXCDp7cLdCglsE49Ne/8uUx/QQ4aICSPcTcVWduemPEDKMtWiZFOXZiz8kguX+wwnCJgFsBIlNngSpmT204mD9+AQdESrHtRqw20ZHWvB15zIdEPoGXMOqvGkHb7lb7p5sTYg3HbNg+E7SxOjRUdcw/Bavb+ZXi1papo7SPQ5P/ATX4CdfTCTAVdTlsscsFq/8eyWE+FiLlrsPzEBbSfdXbmHl/gMEPUUHz0XInN/BYyNYDp6nawaRjSCxyZMgNS78sxvYgou9E2BrYxubqODRji5ftvEafMt1N8d3AWmDbD+GwczciDMD50eSPvcXvSCQcpWDvAPtCTpyvzHrAeOuQd7iQ+NKOvWK6ToZzfD1dU6+B9bfjDUupWdpadVQrGnXymUtLXnvux5tAMtiw9lBLfyd6HiV8NicENqVFLZCHZ+YZdmn11sTSVRdIpBn19mphcRbG7VyYPOa8piKXqtnYWkYi8sMBCIhJJJ4A3FHRnk+wNevJHt1YKY8P8GBrqcIG0FikyfBfC0tajXwG9/wAEq/Ic1Kgy1v8DsOVKfkN9dwdHS58Sx6TB3PoNaJ2ro/9mHQwu43isFAVR3fEJQHAx99q4KWD49D+Abu0RvSON0z6xas/lgeZ53urOlXwHtmUG4If1bPv4Uap6hryKO81a+/466h2CyEGu7x16eia29neJaSHfGjdEd973IVjSrcoItrqCy7/XSgayxTEdEWGpuTF90XHM9xq30LhhSslZ3ePrXikXyP2uibunjjcswxQyIoqi7jke/oqenG8VIFjgi7ZsF/ZqY6pg7e9ZTWMVR7dfZ2cKTidYxgI4TMBnrEjZGTqyLoYrmsVSCE+rvY/SG6jRiixYp9lDL/jOPaz6UB7s8gmvk1aP0L36Pmfhgz0rbUI+1Rum8Mau37PdxqZexMN/Wls3fhe5q8HyE3lZiWlsXERpDY5ElwMzziqrVihoJF0K6V4uasBYtyD+XaqFk9s70Gf5ZSbgrRIfVobCO/TcGSFpqFsHO5vlVLk+NuDn5PnnO536PXe0UIGYCWlhg5IYQQQpKDlpYYeRLcDEsLIYQQMplrY2m5/Xf9idb/538bDCJASwshhBCy+NDSEiNPAlpaCCGEEJ/4omVklGfjXM6b8nyxLGlsBIlNngSp8dNCCCGEJEx8Py0jojyrYPGcy3nO5+7g/AtGeZ4VtLQQQgghPvFEy5goz8v3HuLxg0mRFJPDRpDY5ElASwshhBDiE0O0TIryLOVe99DLyYEV54yNILHJk4CWFkIIIcTHWrRMjvJ8Fw9S2j1kI0hs8iSgpYUQQgjxsRYtk6I897kL59Y5zlKkWmwEiU2eBLS0EEIIIT5T+Wk523+Os+UHuOeZXTSI4hfAew/NunYTfY23H/ejQCv000IIIYSQyxB/9tCFKM/LuPfwDs6NFcYb03J/ULAkjY0gscmTgJYWQgghxIcecWPkhBBCCEmOmJaWxcRGkNjkSUBLCyGEEOJzI0SLjSCxyZOAs4cIIYQQH1paYuRJQEsLIYQQ4nNtxrREwTEthBBCyOJDS0uMPAloaSGEEEJ84ouWMVGePaLKEsRGkNjkScAxLYQQQohPTNEyOsqzT1RZstgIEps8CWhpIYQQQnziiZYxUZ49osoSxkaQ2ORJQEsLIYQQ4hNDtERFeZ4UATpZbASJTZ4EtLQQQgghPtaiJSrK8+QI0MliI0hs8iSgpYUQQgjxsZ7yfPD8CQ5emRWPW7hrgiJGlQUkOeX59u3b1sJkUj5v1NJC4UIIIYTMJMrzIOPK6KeFEEIIIZch/uyhC1GeA6LKksVGkNjkScAxLYQQQogPPeLGyAkhhBCSHDEtLYuJjSCxyZOAlhZCCCHEh5aWGDkhhBBCkoOWlhh5EtDSQgghhPjQ0hIjJ4QQQkhy0NISI08CWloIIYQQn/iiZVQkZ2/bEzwx6VnKwjzbCBKbPAmScSzXRqnURqdeQr1jNkXRLiGTyfRSzmqnxaVTz8l15uzuzVjkHofumdzuEezLZ6pSLin3BwyeroN6riRHGaRT/9j/fObjMfWLOqZ/bRe+v/Yn5pjVMfUkhJD5EN9Py5hIzksr9/H48WMvPRzldS5BbASJTZ4EiVhaOieAs4JTF1jNmm1R5Bvodl3U1otodbs43LbZyQZpmEv1Cw1r0mS3D+HW1szatOTRkHvVbRVRbLWA3XFq4A3U3Aq6hz/D4F3NYvuwIUcZJLv9oXwX/wVFsz6accf0r+3C95f/hRzz5/L9mnVCCEmIeKIlxZGco7ARJDZ5EiRiafHUCnACBytm06UYsMQMWyjUYhCyONTrkuQDnTpyGQflZhlOsG/OFzCDlo7AYhFYHYLjaXl42SucUJcIvPqY/aQep2azx7THFNq7wGY+j03sXrCajMO/fj3XRUvLdAx+B7M7LiGEzJYYoiU6kvP56YvUdg/ZCBKbPAnmbWlpl6TRKjTRLASC4bINmIiKigNXrQpeqsJ1+sdsl6SsGpS5cHbKONaC7DYO1XpTrPX3Pdz2LAODlg61WKiVx6x6FoiulANlJzi2nLOmZ4yuy3hkP8dFNdiv6qJQ9mrpl011TKUtUmXTs5bkNyOMLUPo9eu5WtHmlBj498yv/yyPSwghs8VatERGcl6+h4ema0jTnfMvBse8JIyNILHJk2DelpZ8Qxv8ImpuC8ViSxqxi10Qseic4PgoZC3JFCCSyDTQ2mi30OidwG88Z9O9tCbX0DXHFmGjC5F1iUDNIa3Qfcg3+g37tMdUfDOLvxxHtRBCyA3FWrR8e64xhXxLyqT4Qm8tXRzzkiQ2gsQmT4IkLC1OuYmyI41vsyCN8LSWlrY3mFdZq7m9t/gg9YXKfLmKukx7zPauWrRCYqdp30VECCE3EWvRcvdB35Jyf+UWVu4/gN9T5AdKfN5TMAdwT4EfpGjgi40gscmTIDFLS6uGotcYX9LSkt2As1Mb0xjrWI7KwBgQb7zGmCkqKqj6Rcfec6Z06o9QPvKXI4msSwRqBamEBgR36qg0zfK0x5Q91Mo0IHaixuMSQgiJORB3ZCTnZdx7eB9LL4Mpz7L1biBo0oGNILHJkyCJ2UP+OFzbqUOCNxDVEeHQRGGgm0TJYvupg0pvu6b+YNV8Q8eA9Msct4puz0yRxYaz0+t6qThuz4KR3djCsbFSOO4Wautybm+gbtsbmOtbi8xxe0onui7jyaNRdftdQFKPLW/MjFqhpjmm1tFYssKDi72xRJOmjPcHzRaa/fvNqciEkJsAPeLGyG8G0iiW9rAqDfPJRgMzm71MpkB9qhyKKPsw5vcQtd/kY7ZLJaAxbGH7UsTS7+FWK4l17RFCSExLy2JiI0hs8iSYv6Uli+3GNvLbFCzp4HuUndGO4EbhO5f7Z2PlGsfwMX3rVGApqjjlQcHiOZf7vV0XHCGEXCG0tMTICSGEEJIctLTEyJMgEY+4hBBCSAqhpSVGTgghhJDkoKUlRp4EtLQQQgghPvFFy6goz4az/Wc9V/59vy3JYyNIbPIkWIgozwuHThue1mmemZ58YVrz5Y6ZDhK4Bp0uP9Yvz2BU6SDmUrDNCznhDR6OF+9pFqSpLoN8BlQzwOdmlZBrRszuIfXT4gK3ZHH5AcLBnA+eP8EB7uLxg9EeWpLsHrp9+7a1MJmUzxu1tMxduHTqKO1tYFMD+FyY+koUFXR7nBJ+hfhTrHe2fo7D7XfMNl8cFI5rcE0cKhU9JTQuPQ179DTvaK6qLpfi03eBN3PAW0+AvzLbCLlGxLO0jIvyfLaPr5fujxUsSWMrSCblSXAtojyniOAN+UJ4As9BXg6lUlA+5LAtIsrz2GN69J3BeccMolgr3jmDsmTf0KOvYRIqMAatIpPoWyYuXrtaWIIp1kfl38ty+NjrqG25eBT3ZoW/P0n94/nTvcOO+uzvwZR1uSpOPhbB8vciWMw6IdeQGKIlIsrzt+fy5wzPTNcQozzPjnmPafEak5lGeU4XYyMk5xteZOgmqsatfivkul8aNmdclOeIYwpjo1jrMWNHh/bFgTbiF9P/C/9tbNknE7/D2UeOjkbDRfjXrWEjgojdPvnGz0NRu0Ua1H4+aL3YKGMrVugEEY6PQt+ffg+VQChplHC97iJavfIYFpeYdfEF2aj0Mf7b/33Udk0fWwjar4B/lJeN/I/MOiHXE2vREhXl+ez1OV6dvsKt+4zyPGsWPsrzQrGGWjm42hWIpPAtKlFRniOJiGI9VXTod2T/inwno9L/A383tuwXV/Mdek7ntFH1rSLNgmlkLR3hjecdbGy9YZbfwNZGv3vIR+5jVTWl7VlO4Q6EmNCQE0fY2btcLX3i1SXfGPX9aPoQf/fHUds1WXhE/vw3wN0nZoWQ64u1aJkU5Xlp5b3eGJe7by/h/Ft/OQ3YCBKbPAmSsLTMJsozmUT86NBXZ2mZivwvpM7aqPqWkWLLNLKHP/PHeEzNvohHiHCuiDj8HuXavtkeQoRj1Y1hbfEE+OC99sTjLIhRlyuztHx7CPwp4w/C/dPfSnpX+3cJuXZYi5bxUZ6B5Xt3sHTq9kTM2WsRMSnqV7URJDZ5Eix8lOfrQFSU50giolhPFR06ZZaWK+MeGsa64FkmGvfM9kHyZQe7lX433Xgufg9R6HcUHbTyIrZ1uTJLS/7P8ox2/fTXH0iS9VVTRsg1It5A3JFRnpW7eHB/CS/NmJYX528PzCxKGhtBYpMnQRJ+WmJHeV4Y+oNiL0RIbpeMhcm3LOlYFC9qtReFOSrKc8QxhfFRrKeJDn1VRF/DZHwxddWzZlRMFJpHct9N3bLb2FyzC4g0/D0MX5/q0uC69TuaZIW5TF2ulE9paSHXG3rEjZHfDKQBY5RnMkc4fZwQYsuNEC3000JImlDLjlqyzKqON7lqMw0h5FpAS0uMnBBCCCHJEXNMy2JiI0hs8iRIYkwLIYQQkkZoaYmRE0IIISQ5aGmJkScBLS2EEEKIT3zRciHKsz8NOoju7KVn+7I1PdgIEps8CVI1CLcXK2eEw7moMgs0YN00+8GLKTPbqcLT1OVysXtGYaL1eumx2ZZWdMZZHR15BuynSfu0S+O/u+Eoz4MwmjEhN5H4flq+OMetlSWzblhawX3jeO7x4/sYLk4aG0FikydBqiwt+QbUk+hIF/ZRZZH4PkJ6/kEGWinTGJq1i0j5I/WZMhi7Znqi6hKBCKdH6n9FPa26DipxW+5RfPor4GHXdxb20AF++7EpSCOncP0Im3BiRtjMNw7HTHX+EifHwPHJl2Z9CL0/uQ/MCiHkphBPtIyM8ryMew9CMYnOznC+tDwyRlFS2AgSmzwJ5m9p8aPe+lYDjXpculKHZ536o1BAQUnB1FfPghIEbTT18Ry9hWjXZN8GNszqZRlbF4/x96WzJy/9wWez26hi9/LWlvdDHk1Xfwy8aZbTSMdXK55TQltfKz3L3EVLS3SUZ4HRjAm5scQQLRFRnkOcnZ1jaTlNkoWWljh06rtw3KDhrgJNGzfp05NdHWMlkcb/sOuiVhRhEoiIw+1QTBs/SnIvvuEMGFsXIeq+nLrSWodYcaRdnaXQ02B4b4pwSSFet5hTRrPsGAuVZVedscwNR3hWoqM8M5oxITcZa9ESFeW5zxnOzpeQMs1iJUhs8iSYt6Ulu+Fgp+fuvIDj2tOr9VSaL8OpBOfLWMd88UTE07CImQERdZn7fQn4/LG8L4gKSmkjnd0+RLdVRLEVCMxx3T1xiIjyzGjGhNxorEXLpCjPHinsGlJsBIlNngRzH9PiWTgCi4KLrdhB/eKgY0hqWD0Mnc/dixjD0ufU1ThBvogIxwyangl1ibgvK46IihCxukmiaL/rC5Zffmg2pA/P0lJoolkIuvJmMSg6IsozoxkTcqOxFi1RUZ4Dzs5eAT9Im2ShpcUebbhnNfvFln6AvkzGgbs53nrSLoUDEQYCwkSldoejUX8p11JFphRq8CYyri7R9yW7Ie1mr7CNXWxevi4a+O67X/cFy6fpnEHUt7S0UFR3/DOxtEREeWY0Y0JuNPEG4o6N8uzz7fkS3p4w5iUJbASJTZ4E8589NNRwVwMx4M+s0e0XIwFHlUWRxbZn2XBRWy+iJQJkMARNFhvOTm8gbsVxh8r98462tHwD9+gNeWMPNXiRTKrLuPsiqGrpdStVpD4DOwpx6/KZ/qtJ+qmZ8iwpTT4EhvDG4cacOqQCVO+X/935y7Zdgx6MZkzIjYQecWPk5KpQ8aFdM8PWkkvQ/gSZ3R8OvqVbkaa6LAbq1wabwC4aQ0KPEEJmC6M8x8znjVpaGOU5Pp36x6itfpiKRjRNdSGEkEWGlpYYOSGEEEKSI+aYlsXERpDY5EmQKo+4hBBCSILQ0hIjJ4QQQkhy0NISI08CWloIIYQQn/iWFo3y/OIVbt1/iHs9lyw6FfoFTs91+RbuPr7ow4WWlkWiDZ0QUnZ2sbfRsPS7oVF3f2qWPwAq9FpKCCFktsT30zIqyrMXSNE4n7u/hJfPL/jKTRQbQWKTJ0EilpZpAuAtVFRiQgghi0g80TIyyrNImdfAUhBxdXkZt/A6Vb6wbASJTZ4EiUx39tSK+uxyYO0ubIqoxPUckMlIXvdzTQMO6TpAzmzvlYW2hffLyTIhhJDrTQzRMj7K8/K9t3Fu4hI9efIC529PCqw4X2wEiU2eBPO2tHieSgdiyUzh1t8yKvH2IVCUvCwaqduVJPlxQTunfEoOsNYaLCudAoeyrEGAe/tJWitTuBBCyHXHWrRERnk+A96+H8Qmuo+3U+Zz3EaQ2ORJMG9Li8b08WP5BLFkYnqGnSIqsQbH88iK+JDspKMO2YCmKJOeR3wpe1qTbbtmXejtJ5Sl7GjHM8QQQgi5pliLlqgozwfu1+irGVl4fZYq2WIjSGzyJEjC0uLHgymg2SwgE8fSMuuoxKJgbIfUZBk0jxBCrj3WoiUqyvNbS+GBuWd47c0iSg82gsQmT4LELC2tGoo1197SMuOoxBqDcL0ZGuPSAR6VgeKmWRfUuhJQKsjnt+xFDiGEkMUj3kBcESSjojwvLwMvvfEsHNMya5KYPeSPw9U/thJguqjEOhBXdAnKjj+OZWBdTq1jV3QcizfY1oxvCcfvqcm2YCDusQiYw21TQAgh5FpCj7gx8ptBB/XSHlYdFyfWPlrmjM4gEsFSlSeXMQgJIeTmwCjPMfN5o5YWRnkOYQTLkVnV6UfdhlkmhBByraGlJUZOCCGEkOSIOaZlMbERJDZ5EiTiEZcQQghJIbS0xMgJIYQQkhy0tMTIk4CWFkIIIcQnvmjRKM9PnmF/aErrwfNgyvPFsqSxESQ2eRKkdRBuEDdoIFaQIapsHO3SFOEClE4duUwO9Rm6wl3sunTk/mfk/s+2HtHojLM6Ou1SrO9caZfG17NdqkYcT6OKy0P2uVm1ReqYiVtJQkhqiO+nZWSU5+d4uXTfOJ+7g/Mv9m3cdMwNG0FikydBWi0tGjeopgGARhBVdhG/kS00myiI0hlsUExjaNYuIuWPXGzV1Pn/LFiUuoynU38Et6oOAmdVDxtO4foRNjU4eCzyjcMx0+q/xMkxcHzypVkfQqOK5z4wKzHIN9ANO/shhCwU8URLRJTnW+phzuMunFvnOEuRarERJDZ5Eszb0hJYSYI08BYs7Wa4rNybdyxElUUQNLLdrklBg+JZLYKgjWo5kJQbEg3tmuzbwIZZvSwLURePNkpBPTI5lEql3veUFcU49za546sVzymhrV8ftXiY+g9bWtTCksn83nuGjsq/l+Uhi8vJx8Cbfw8EkeUH+FKe4YsWGi8QaOiezc8KRQiZJTFES0SU5x8Ar3oq5QDu6Sucf2tWU4CNILHJk2Delha1kkgb6aeWiI9H0iZpgfzJFYCaiazshlzoR5ZNILs6xiKQ3cZh10WtKGJAG21Nh9shN/3ScFdESMywgV6Iugid+i4c19SjWwWax6Zk/nRE5WacMpplx1iFLAWBWjyk/qMsQvnGzwcsdeu1n4eE2FfAP8qDFiMgp6LhKfz7NW8rFCFklliLlsgoz3cf4M75CzOm5QC4dcsUpAMbQWKTJ8G8LS0aXVleRv0kQiSgsydvvUURNaallnZc/bp5RJVNJF+GU+m/BecsX4G9hvtpWDjMgAWpS3bDwY4TlBVwXHuamOditex0W0UUW4GoG9fdE4d3sLH1hll+A1sb75hl4fPfyO/NE7MSov2J3Iu+haZZ0GVJuT8MWsQIIQuNtWiJivKshAMqOkvA0kjTbTLYCBKbPAnmamlpA/LS3LOYqKUlQE3/wzjmbTiqLBodt1HD6mHwFuxiy92zamROXY1E7TfcflTqKQfP9liguniWn1DZTu2S55sez9JSaIpICLrPZtH1so+a9xxW0Cp+j3Jt32wXvj0E/iSKWgfh/ulvJb3rjaVB/hdyLyqSfCtNsaXLkg5/xiCahFwjrEVLVJTnAc728cX527iXooiJNoLEJk+CeVpadGgC5Ad/w/zK1yt+ruQ1unLT0zU+shCMW4kqm4wZaOolB+7meIuFjksIxioMmvuL0sANR6P2xzZkSqEGbyKLUBcVNJcVRbOjb2lpoVhsyT2YhaXlHhrdD73j5BsiPBr3zHYh/2egIopa019/IEnWV00ZIeTaE28g7pgozzp7yO8akvTiHHcejJQziWEjSGzyJJinpUW7dXQ4imO6h7AlScSHk5OmUlphtbwUTFlmVz4rAqdZAErysbFlka1rFtueNcGVzxfRkkZ/cBBpFhvOTm/wa8Vxh8r9GTajrRvfwD16Q97YQw1eJItUlyFBU+2LJM/yIdv9emj51Q869cbhxpw6FAyM7dfTvjvO41N50MKWlh7vyL2rDN0vQsh1gR5xY+Tkqgi6Q4YtFJdAxzjs/nDwLd2Ka16XK0B9yWAT2EVjIcRCp17CXlojmBNCImGU55j5vFFLC6M8x6dT/xi11Q9T0YimqS43ExV/Tr/LUrux+GUQspDQ0hIjJ4QQQkhyxBzTspjYCBKbPAnS6hGXEEIImTe0tMTICSGEEJIctLTEyJOAlhZCCCHEx97SotGdX5zi3KwurdzHw5AzlrP9Z3hxqqW3cPfxRR8utLQsEm3ohJCysxtjloVG3f2pWf4AqIzwWkoIIYRcgliWFhUqgYO5sGDxHcrd8cvuL+Hl87Cv3OSxESQ2eRIkYmmZJgCeRt19KPpXnX49dIDffmwKCCGEkNkwk+4hjZXYcyi3fA938PWAi/+ksREkNnkSJDLd2VMr6rPLgbW7sPdDnklXfwy8aZYjCCJK10Pxjgac0XWAnNneKwttC++Xk2VCCCHXm1ii5fw0CIr4BM/2g6jOGpco6DTyeWsJeN0vThwbQWKTJ8G8LS2ep9KBWDJTuIzXoHZvinCZgEaU1sCK5SDWkeTHBe2c8ik5wFprsKx0ChzKsoY26u0naa1M4UIIIdedqWcPHTx/htfOQy/G0MHz58CD/jiWs/3nOFt+MBB/iGNaFgffY+gm3BrQiOuE6/PH8kCI2vjlh2ZDNKKR4Ij4CMbNBOsbe5LvAK4Im6CHSiNQa1lXBYqcYiu0n1c29HlCCCHXi6m7h95aWjJLg8vKt+fAD1IUMNFGkNjkSZCEpcWPB1NAs1lAJo6lpf1uLMEykTV7AZJl0DxCCLn2WIoWP1Bif3ztAdzTvjBZlvx1qOxrvD06AnRC2AgSmzwJ5j2mRSMWe5GKWzUUay66Xcu4NxrA7rtf9wXLp4/9fEqyG8B604xjUTrAozJQ1IjShrJGdzSUCvL5LVpZCCHkOmMpWpZx7+F9LL00kZyfiEK5G5rWrKqlV/YSS06aJAstLXHxx+HqH1sJ8JnqWkk/BaoiXjRZjGnSgbiiS1B2/HEsA+tyah27ouNYvMG2sk3Ht4R7q2qyLRiIeywC5nDbFBBCCLmW0CNujPxm0EG9tIdVx8VJWiPh6gwiESxVeXIZ9o4QQm4ON0K0MMrzNcIIliBgr04/6jbMMiGEkGsNLS0xckIIIYQkx0ycy6UdG0FikydBIh5xCSGEkBRCS0uMnBBCCCHJQUtLjDwJaGkhN5l2KYd6x6wQQm489qJFozwbF/7DbvwDPy5PnjzDwOaUYCNIbPIkSNUg3HYJmUxmtMO5qDIL2qXp9lNXuLnMbBu2dNRFo2ab6ePVy/m8uXp0xlkdHXkGBmJH2WKeneF91dFhxXk6mxls3nejz2daRNCXqOeqUh9Nn1x43qLEWrtUjbjP5rn53Kzaot/BhS/gE1O/qPNNwDvGxeubyJhnglw9nfrHyOT+oHMeUkksS8u4KM9n+1/g/M5j3F8Z9IybFmwEiU2eBKmytOQb6Ha7aGnAoGGiyiKRBi+XQaHZREEblYFfKdMYmrWLSPkjF1u1NbN+WVJUl4WKmn0K14+wqcHB46PPzogHRx0dHs5qzn12G4fyfLoze1ZmQ7FVkf+bX1yYup9vHI4Ra1/i5Bg4PvnSrA+hz03uA7MSA/0OhkN25H8hdfs5ahroaypEmFX+XS7yh/FdE4x5Jkg8pnkBy27cxvrRMWopFYwz6R5avvcQQZDnNGIjSGzyJJi/paWNkvdG6r+VluShv8o30079Edxq1xM8Xgp+OL034yBoo6lPbkg0tGuybwMbZvWypKku00TNToyOr1Y8p4TWGiP8nA39sPasIn66YADQoJ6mLFevyzNqPjCwXwyLSuR+oXrKd173zm3qO6GeU9GzWF6sv1pYMpnfo3wEHJV/L8tDFpATEbZv/j3wllkfwLfsRN3LmVuhOl9h5+gN1Mr3zAbB9l4PPRNBPbX+4WWPyO/BfxHplcnvWb88omza73bcfma7niMoy1ncbO9ac1Ivrac8f+16bmjfwWvob/fvZe8FzEvhexpx7dmfoSp6sbm7bzaki1iiZVyU57RjI0hs8iSYt6WlU9+F4wYNd1WeXHmtu0Kyq2PefL03Yxe1ooiBQEQcbofc9Ms/ZUWEROxXuPGkqS4DWEbNToKO/og6ZTTLjvmBtGn49Aez0n/OXAeVgvpCNmWPXFSD+yz33an0j6nnqzgaXsIvr7pybr9Iv0BUW8F+VbiPoixjIcbuN1TPqivCdR01V0NbRNdzaozFcpRFKN8YtHqs134e8hD9FfCPohrzPzLrdqg1y6//7K1Qnb3/E0frt7ERFrK293rgmTD1bBXRLGiXoX7/cr93dd8J34P3MhEqO+4fc3zZtN9txH76G6L1P3bMb4iLrZ3agDAbRb4hvzv6hGs95fkruFV/X3dPziaXUJLjhV60qnLffPGRR0PWW8UiWqZsICRL1H0R8pt/Ib/9/zaxfklgL1qW7+Gh6RrSdOf8i1SOXxmFjSCxyZNg3paW7IaDHSdQ4AUc12Y0pmAc+bL8Y/cVv83bh+KJq6dh4TAD0lSXgCBqdszGaF5ktw+9xqTYCkTduG6NEJ09uFuh50p+0J/2WuNTuEfht0MRg0dH2NnT76KDPXcLT0Mn8BqzULfGrjRq/n6FvpixYPR+Upe1ar+eIij6PRZR9bwq3sHG1htm+Q1sbbxjlgUVtnefmJUQvXEpvoWmWTDjaOYwZuHU/R5Y+79e+L8Yea8jn4k+RRE8fpdhFtsN/Z+b8D3kNyGF/bK1Vl/ojS2b9rudvF+xGvxOZLG6dowTmy9hrdZ7ISpu9p91+XKxi9D1CPlGS26whdSIui/KyptYx/d29ZszU3cPDUd2TjM2gsQmT4K5j2nxrAp9BW7zNjA9+nZVw+ph6HzmDWISp65Govb/6fyo1PH7bgdJU10Ms46afQV4lhZ5I24W5IfP6z6bgbWh2DLfQT/ZjG1pl0Jv6vL92RoOpt1v2npOzz5qZaDmVkQ8fY9yLWS+//YQ+JMZuP2nv5Ukz86JbPfGpei4Gd9K44+hkXT4swtiYh5Mfa+jiPwefItDsL2FSuj5jCib9rud+zMxLVH3Jd1YipboKM9px0aQ2ORJMF9LizbcM2pwrRl8M3E3x1sstH836HcdNGsXjck+jJmdUYrTL5uiusw4avZV0be0tFD0frAtLC3ZDTgDYrgtjXEQmCGPzbE/oFlsODuDAwR1DIg3vqiDk+O1/piatrydWvVsRu23Aud4t1/PTh2Vnmkgqp5XxT1paD707m++IcKjERorkv+zP2hb019/ICk0JiohVpw3gOP/X0j4R9zryGciiujvIXoW1riyab/beT8Ter7Q86m0d4EBa0wffcEIrMcTXQmcfocjvBFjjNocUedydulfun//m4+6H33kp9/9sV/2L3//m952P/2m+/f/Et73f3TPzs4SS8o333wzk3ze7O/vm6V54HblbUydDfZSsWWKRpT1y6PKbND9i91RH3dr673jrddcszUgfN7h/f+pW8TfdC/sMpE01OUfut2PpP0fSB+YsvQhQq1ba9W6xTg326115cXf3K/1bk2O4eXeIVpyv4IyP419DtdrssXQ0mME24vdon7O7Ci6ql9mUu87jNhvsJ5SVgzqqETVcxL/Xa7jowufj6ynDX8XPC9/2e1+ZbZZ4n2PF041up5WuP+73Luh5976XoefiaHv3Ns39L1HfA/D9zN8L6PKoo4ZzZj9etfmPz/935LRvzUBvTrqQbx7F7ofum3gnkkauC9C+H6HLiD62rX8I/n8P5m1dEGPuDFyclUEXTPDFopLoH35uz8cfBu1Ik11WQx0WqW88sk7X2OwX/wa4l1rYxbPhlrffg+3WknNPevUS9i7ENn9MvX09y2v/Zdr++xfSzp/QM45xlorPc9mmJlMeU47NoLEJk+Cm+ERN4vtWYoEoXPyPYqb0/xQpqkui0FeG/H8dRUsKmKDLkOduVKe6bPhD4ydwvnaTBi8NsfdHBQs3iBefwDvdLyD7Wp6Z6GQ0fizvtaubjbkJaGlJUZOCCGEkOSgpSVGngSMPUQIIYT40NISIyeEEEJIctDSEiNPAlpaCCGEEB970RIZ5fkAz3tlz2UtXdgIEps8CeYee6gX+2Qafy3T+3mZOrLyrFGHbtNEVo7ab+ZlXwG/1e1Srg7EhrmKYxJCSAqIZWkZF+X54PlLLN03Lv7vL+Hls32kycO/jSCxyZNg7pYWE/ukVTTrsZhm5o0/g2F0ZOUoZL/IqMtToAHn1KFbEFn5089MwQSi9ruKsvZ/Be7K9lzObAhxFcckhJCUMJPuobsPHqKnYZaXcStlHv5tBIlNngTzj/I8Gs9de89FexCNtW8d8cvjW2jGRlZWelafoeN6EVMDt/GmfDjq8jR8Jen9n/jLq+qJdtdf1sY+bJ1Qb7W63tYdhHH7KVdRpt5P/8osD3MVxySEkJQQS7RYRXk+cPFqaRlp8vBvI0hs8iRIy5gWddfejwKrcSvcgYiznjv3KSw0YyMrKyubaIWjvgZWmIlRl6fkO9csGN6UpF0l2sA//BtZd7zN+M8fALkv5TaYIIbj9lOuoiyKqzgmIYSkBHvRYhPl+eA5nrxcwnuhrqM0YCNIbPIkSIul5cqIjKx8gkoQcdopY2ofV7NAhctdafTVwpLiqMuEEHKdmbp7aDjK89n+M0+w3H94L1VWFsVGkNjkSXC9Zw/peJZxkZWl7JGLamBJ6bYw1TCbOASWlIDvJA0HnVv+wCyEiNrvKsqiuIpjEkJISrAULdFRng+eP8GL8zt4bATLwfN0zSCyESQ2eRKky9Jy7H3vio5Fmd69d5hxkZVP4cLBires56vIJ8cTjrrsM0VkZTWefO4vAjpIddNfVHTWjVpY3n/iW1x++7EpEKL2u4qyKK7imIQQkhJiOJdT4fICp+f+2q27j/Hgri7pdOcDvPK2BtzC3ccP4BUbknQud/v2bWthMimfN2ppmZ9wUcuHc0GMFFtdP66MDoANummKNdSOyyijBvdwA3tR+00ksLgMzjzSwb1OcNBiEcVmE8c1F4cmQEq4fD203WcfpcwhHNcP5W/HVyJG3vEtEPhL4KEJ7//5Y+BPfysLHwAVES06EFe7Rpf/wQxsHbOfxxWUqYA6/FezooTLr+KYhBCSDugRN0ZOrorRouVSXPPIyoQQchOZyZTntGMjSGzyJLgZHnEZWZkQQshkaGmJkRNCCCEkOWhpiZEnwc2wtBBCCCGToaUlRk4IIYSQ5KClJUaeBLS0EEIIIT72lhaN8vziFGbGsxc8MRw0UZ3LvfDmQy9h5X4oFpGBlpZFoo1SCSg7u9jbaFhOGf4MqP7ULJupwYQQQsgMiWVpGRfl2RMs6lzOK7uD8y8Y5XlWJGJp6ZwAzgpOXWDV1sfJp78CHor+DSIIh52vEUIIITNgJt1Dy/ce4rHvaS6V2AgSmzwJEvGI66kVjfzT90g7kfdDjshWfwwvGN8E6jkgk5G87ueaBrzadoCc2d4rC20L75eTZUIIIdebWKIlOsqzesbVspdYei9d8YdsBIlNngTztrSoO/xMoYlmwUG5WYaTKWHAO74Nn/9GRIsIlwlsH8KLJ1QWjdTtSpL8uKCdUz4lB1hrDZaVToFDWdYA0739JK2VKVwIIeS6M/XsoYPnz/DauTh2xRMvz17DGQqcyDEti0OnXsLexibcGtCw88PfR13ea4yeX35oNkQjGgmOiI9g3EywvrEn+Q7girAJeqg6Ikq0rKsCRU6xFdrPKxv6PCGEkOvF1N1Dw1Ge+9yFc+scZyka1GIjSGzyJEjC0uKUmyg7BTSbBWTiWFqCoIKWgmUia/YCJMsYOYQQcu2xFC1RUZ617Bn6vUWDEaDTgI0gscmTYN5jWvKNLtxaEbVWDcWai27X0r2+BhH87td9wfLpYz+fkuwGsN4041iUDvCoDBRDgYnLNbMglAry+S1aWQgh5DpjKVqWce/hfSy99MezPHki6uVuEMVZy+7g/EVQ9hJL9wcjPCeNjSCxyZMgidlD/jhc/WMrAT5T7Srpp0BVxIsmC0ubDsQVXYKy449jGViXU+vYFR3H4g22lW06viXcW1WTbcFA3GMRMIfbpoAQQsi1hB5xY+Q3gw7qpT2sOi5OrH20zBmdQSSCpSpP7iyDLBJCCEk3N0K03L5921qYTMrnjVpaEpn2nFaMYDkyqzr9qNswy4QQQq41tLTEyAkhhBCSHDNxLpd2bASJTZ4EiXjEJYQQQlIILS0xckIIIYQkBy0tMfIkoKWFEEII8bEXLRrl2bjwH+3GX/A+E/bZkg5sBIlNngRpHYTbqeeQyeRQ75gNIaLKpqFdmiKUwBVxLerSqSM3w++HEELmRSxLy7gozz5n2P/iHLdWxnnKTQ4bQWKTJ0FaLS3Z7UO4tTWzNkhUWTw6qOcyKDSbKGQyyAxEU4xCp23XdaLRDFmUukw6n5Q/crE1k++HEELmy+y6hw5cnN95kKpAiQE2gsQmT4K5W1raJWS0IfTS0Ju894ZuynJ1nJrNHmPKBq0ubZRGHXcMnfojuNUuul2Twp7lxtXTq0cQ7LFfn8uKhoWoi8352jXZt4ENs0oIIYtELNEyPsrzAZ6/XIKTJje4IWwEiU2eBHO3tKxsouWaxtB1UOm9xYvgcFxUg4ay6qJQPp5YNmh1yaPRdVHTEM0WZFcjrAHj6pndxqGeoyiNc1Cfw+1Lu/dfiLpMPJ98TxURNfTIRwhZUOxFy/I9PDRdQ5runH/RG7tytv81lt4bjOqcJmwEiU2eBPMf03KCimPe0p1y34lbexdoheIQ5RtoFc1yVNllyJfhVExdJOUGBmGMqedVsTB1GU+nvgvn6eVFEyGEJMXU3UPhKM/fnr/CqYk99OJUl5+jF1sxBdgIEps8CeZrafHHO/QsJt2WOpxNCB23UcPqYVAXF1vununqmHc9F6Uu0Zy6Gr3bFzp+JO8pB/ISQkhCWIqWqCjPGjuxb4G5v3ILKykLmGgjSGzyJJivpeUULhysmLVOveIFMPTIbwKV0PiITh2VoDCqzOPYe14UHY9RtjZFmIGmXnLgbgZWgoh6jqBdyvSjRXt8KQ1/FZnSvlm3YRHqcpHw+TSCty90TCRv1zKCNyGEpARL0RIV5TnAFza0tMyW+Vpa8ihv7fQGcTruGorNgul+yKNRleY5aCwdnYGiEZn1bT2qDMhubOG4EBxzC7V1aXQnDkjNYtuzJugYmCJa0tD2x75G1VPJYsPpl1ekPuFxs8A3cI/eQK18z6xPYlHqokw6n1pqaGkhhCwm9IgbIydJEHSHzNAq0P4Emd0fotuwFQoB17wuhBCSchjlOWY+b9TSwijPs6VT/xi11Q+HLBDJkKa6EEJI2qGlJUZOCCGEkOSYevbQImEjSGzyJEirR1xCCCFk3tDSEiMnhBBCSHLQ0hIjTwJaWgghhBAfe0uLRnB+cYpzs6rBE3tBE6PKDLS0LBJtlEo6ZXkXexsNbFu5UP0MqP7ULH8AVJ6YZUIIIWQ2xBItz8+W8eBCdGchqszA2UPTkcjsoU4dpb0NbLo1oGE5pfbTd4H3/gysyvLJx8A/Sv7LD70iQgghZBbciO4hW0EyKU+CRKY7n7qe+DgJeXqdyPtGsCirPwbeNMsR1HOimjOS1/1c04C32A6QM9t7ZaFt4f1yskwIIeR6cyO6h2hpsUfdvhcG/NCr19WYDsw+fwx8+78B+R+ZDeOR06FZBOQUviBxgKo8kXo+LUMLvg8TU7am66KkdPko2E/Qzx7XgMNtf50QQsj1Y+rZQwfPn+G18xCjeoRGlXFMy+LQqZewt7EJv3coptczFSwHoigsu4ZUbDgueuNmgvWNPcl3APdQHdP7dOp+Wbfsi5at0H5e2dDnCSGEXC+m7h4KR3keJqosCWwEiU2eBPOePaSWFj8uTQHNZgGZTIz4NO13YwmWiazZC5Bs0DVFCCHk2mIpWqKiPEdHgE4DNoLEJk+CeY9p0UjAXgTgVg3FmouubdfQpxngu1/3Bcunj/18SrIbwHoT/TEuHeBRGShumnWhXDMLQqkgn9+ilYUQQq4zlqIlKsqzTQToZLERJDZ5EiThp8Ufh6t/bCXAZ6pdJf0UqIp40aTrE9CBuDp8puzoJOuhdTn1oVThWMSIN9hWtnnjWUIKqibbgoG4HM9CCCHXH3rEjZHfDDqol/aw6rg4sfbRMmeGBuwSQgi5GdwI0cLZQ9cII1iOzCpCM4gIIYRcb2hpiZETQgghJDkYeyhGngRJjGkhhBBC0ggtLTFyQgghhCQHLS0x8iSgpYUQQgjxsRct6qrfm9Lsp2f7F+e0nu0/65X3/bYkj40gscmTYO6DcNslZDKZeE7lLGmX4h6zjZJXlxnXR53geVOzJT8x2zw0UrVu1zTez0yn/jEyuT/omOAB4l/feNqlKjKlfbNGCCFEiWVp0ZhCjx8/9tJwbKGD50/w4vxOr/xBihy12AgSmzwJ5m5pyTfQ7XbRKpr1mdBBPacxjZooqAAZiopYL9UvCAClXarAcbtefbqug0pu9OdioYJFneBVupIk/8ePTYHw6a+Ah7pd0kMH+G2orMc+auXvsb71o5Aju6jri2L8tec3/wJoHqJ+6QsmhJDrw2y6h8728fWSCJo0KZUQNoLEJk+CdEx39hvlTCYXakRHbRtNp/4IbtWID02Bh7hOHbmMg3KzDCewqISESb5x2PcTk93A1ppZvgz5PwPv/8SsDGETqbr9b2jiL1DdfsdsiLg+pWe50hSyxEy4duTfQ239e+zsfWk2EEIIiSVazk9fjO4e+lbjO5/1uo9GdR0liY0gscmTIB1jWrLY2FrHeu1pyNlcFtuHLRSxNtFxbnZ1jNrIbuOw66JWrMENGvzD7dGu+Ns17DgbM3LTH3QD/Qr48Zg4SZ//RkSLCJch2rv/DhR/OODUbuz1KSubaIWtRYEVZuK1vyP3/A0c7Xw10hJDCCE3EXvRsnwPD03Xj6Y7518g0CZnr8/x6vQVbt2/WJYGbASJTZ4EaXEspw3zkQaVMuNMvLa3vYtmcXOyV9p8GU4lsDZkkIvb56HWioqDpzNzz/uT0d1DAUGk6vyPzIaAL3FyDKw7/8msGyKv7wQVx5Q55b5TPAuyq28AR99B7zohhJBLdA8NR3JeWnkPwTCXu28v4fxbfzkN2AgSmzwJUjN7aMXB+vEJOiJUjms1YLeNjrTg686K+cA4tBuphtVDY03outhy96ytB516zhMs7jgLzKUQ8bLsDg7GjR2pOur6pOyRi2pgSemqZYoQQsi0WIqW6EjOy/fuYOnUla0+Z69FxLxlVlKAjSCxyZMgNS78dUwJXOxJA7+1sY1NVPBoR5dtpIQZoOolESCb4wVIu2SsOGbZcau9bpOLs3O+FMEQZ5bNV8BvwzOGPgMOJQvGsUyMVP0OtCfoyP3GrAeMu75TuWMOAlnXqVe8gJDjCF+70jn5Hlh/s7c/IYTcdCxFy6RIznfx4P4SXpoxLS/O3+5ZXdKAjSCxyZNgvpaWYHBtaCaMJL8hzUqD3UR5x4HqlPzmGo6OJo9n0f22PSuEi9p6Ea1udyBSs5ZvODu9wagVxzXlbexqC98sGDGgddLtYb6Be/QGauV7Zn0SPxJBIqLkWTCtWWcLPTFldpGq/Vk9/xYST1HXl0d5q39tjruGolxPv/to3LUrX2JvZ3iWEiGE3GzoETdGTi5D0I3SmF1k5vYnyOz+EN2GrWiZBfsoZf4Zx7Wf4zA0g2jm16fXVvgeNffDdEbaJoSQBJh6TMsiYSNIbPIkuD4ecdUiMUPBImj3SXFznoJFuYdybdSsntlenz9LKUfBQgghIWhpiZETQgghJDloaYmRJ8H1sbQQQgghl4OWlhg5IYQQQpKDlpYYeRLQ0kIIIYT42FtaNMrzi1Oow35Fgyf6QRPVh8sLnAYFytIK7j+8h/CsZ1paFok2SiWg7Oxib6NhORhUXeP/1Cx/AFSCqcSEEELIbIhlaRkb5VlFitn++PF9rAw6y00cG0FikydBIpaWzgngrODUhYUfFoNVhGRCCCFkembQPbSMew9CVpWzM5wvLQ9YWZLGRpDY5EmQiEdcT62o49i+N9eJ2ERIHqKeAzIZyet+rinsEVbnFOfM9l5ZaFt4v5wsE0IIud7EEi1jozyHODs7x9JymiQLLS1xUFfymUITzYKDcrMMJzPsOt+CMRGSh9k+hBeLpywaqduVJPlxQTunfEoOsNYaLCudAoeyvC7lvf0krZUpXAgh5Loz9eyhg+fP8Np5OOSu/wz7z8+wHLa8GDimZXHo1EvY29iEWwMagz73JxNESLYMOCgaCY6Ij2DcTLC+sSf5DuCKsAl6qDoiSrSsqwJFTrEV2s8rG/o8IYSQ68XU3UPDUZ49Utg1pNgIEps8CZKwtDjlJspOAU0v7k8MS0vsCMkTWLMXINmga4oQQsi1xVK0REd5Djg7e3VxYwqwESQ2eRLMe0xLvtGFWyui1qqhWHPR7Vq6pp8YITke2Q1gvWnGsSgd4FEZKG6adaFcMwtCqSCf36KVhRBCrjOWomVSlGefb8+X8PbwxhRgI0hs8iRIYvaQPw5X/9hKALsIycPoQFwN3Fx2/HEsA+tyah27ouNYvMG2sk3Ht4R7q2qyLRiIeywC5nDbFBBCCLmW0CNujPxm0EG9tIdVx8WJtY+WOaMziESwVOXJnWUARkIIIenmRoiW27dvWwuTSfm8UUtLItOe04oRLEdmVacfdRtmmRBCyLWGlpYYOSGEEEKSYwbO5dKPjSCxyZMgEY+4hBBCSAqhpSVGTgghhJDkoKUlRp4EtLQQQgghPvaWlrFRnpVwpOdbuPv44nRoWloIIYQQchliiZbnZ8t4MOi33+fgOZ7jAR6oUlFx4/4AD72VPpw9NB2cPUQIIYT4zKR76Ow1sPSWWVlexi28tvEtNjdsBcmkPAkoWAghhBCfGXUPHeD5kwO8Mmu37j72rS4haGmZDlpaCCGEEJ+pZw8NRHk+OxDZchd3PQ1zhgP18u+v9OCYFkIIIYRchqm7h8JRng/crzU8kUEWXp+lqnvIRpDY5EnA2UOEEEKIj6VoiY7yHBYw+tnXQR9SSrARJDZ5ErBriBBCCPGJ0T0UntY8NG5laLwLx7TMDo5pIYQQQnymHtMSF45pIYQQQshloEfcGHkScEwLIYQQ4kNLS4ycEEIIIclBS0uMPAloaSGEEEJ8aGmJkRNCCCEkOWhpiZEnAS0thBBCiI+9aNFpzU+e4IlJz/YH3ccdPA/KnmGoKHFsBIlNngQLM925XUImk5FUQttsmgftUtzzdVDPaT1zqHfMphkRvy5tlLx7Nv/7Nlvknpbq6MgzULK6iOA78FNu5BfxpXymKuWaPrlwb9qlEd9f+xPz+eqYekQf03uGh3eceMxo2qXp9hvP/K+BkDQRy9Ki8YYeP37spX7cIeHgOV4uBWV3cP7FPj3izoiFsbTkG+h2u2gVzfoAplEza7PBb/gKzSYK2vgN/BqPP1+n/ghutQu3tma2zILp6tIuVeC4Xe++dV0Hldys79G8OIWLVeAEcFbMpkiy2D7Ua66hWGthy90be93FVkXuzy+QN+sB+cYhtrNmJSD/C/nsz1FbN+tjGHdM7xluDG21POZovsTJMXB88qVZnx3zuwZC0sVMuoc0yvOt5UDE3IVz6xxnKVItNoLEJk+C+Vla/IY3U5K3ZdPwtkv+m7C2wZ16TpaDt9vAQmBhHejUkcs4KDfLcLx9JJnGeepjCoH48Bp8TcEPdcT5lOz2IYZ/0y/LtHUZaHizG9iapY6aJx1frZy6wOqwkIigs+fC2chjw3GxF9yUSfQserOzlAXP+SyPqxaWTOb3KB8BR+Xfy7KNlSP4H/Dr4P9/yPrkHa/kGghJI7FEy/npi5HdQ8s/AF71VIq6+H+F82/NagqwESQ2eRLMz9Kib78tFJvH3tu/61RQkcak220Bu22vse9bJ/JodF27N7fsNg71s8Ua3KBRP9yWs/kCYqpjCtnVMS18xPmuipnUpV3DjrNxpfW8CryG1SmjWXaMpcm2wexgz3WwIRec3XDg2qoWY9GbpaUs3zDfzQyPm28MWjbWaz+3EMv6PyD/g1jzxF92YwvrxdZFy8kIruIaCEkj9qJl+R4emq4hTXfOv+iPXbn7QNYDQXMA3LplCtKBjSCxyZNg7mNailXz9r+GLW1R0kq+DKfSf7scPS5iTly2Lmo9qDh4eqG/I/2o8Oy2iii2AnE2ottmFJ09EcZGpGU3RCiP7yJaTN7BxtYbZvkN+V96xyxPQoSLdhXqsyQvDdVZmwUJWXCm7h4aDJKouqUvaBwpWnrLFKQAG0FikycBZw+NQruyaljVcRHe26UbOS7iarlcXTxLhQgW94qtQVeFV/9CE81C0A1mZ2np7O141hlf6Om+O/ZdRAvBPmploOZW0Cp+j3Jt32y3pChC0CwSQvpYipboKM8DnO3ji/O3ER6nmzQ2gsQmT4J0zR469r53RcdxaH/9NGj/e7+bftpjmkGvptFzN8c3+oPnm4SZnVGK08hMVxdddtxqr8so/uyj5OlbWlrSzrZEtNlYWrRraKvfZaZJ16+VarmHRvdD717kGxV0G/fM9gmo1c2zsDSMxWWRZ5URMnssRcsy7j28j6WXwbRmUS93H6AXyPngudku6cU57gyHeE4YG0FikyfB/CwtajEooNksmO6NY5Qd84Nptmkf+3HBb5wdaWRq69JYewNLzSBe2d6bQSOpLxSy2HB2eoNRdaxMYPUef8wozOwTbwxMES1p9Aat6OPPFwxudMpNuT4tH7YMfAP36A15S7ZsZKauSxu7Tcnk3up2TQVdX0C8cbjWU4f0WQmsMub58hpqf1zMpEGnwYDT/veXcNfgLNGB295DcIwTuSS1Rh2pIJ74/0DIzYEecWPkJG0EXTONi1M/p0V9Wuz+0P7NuMcV1GVBUAsRNoFdNIYE22VQi9fv4VYrMY8Ztd/kY3bqJextNIasRdPW5Sq4DtdAyPRMPaZlkbARJDZ5EnBMSxRq5ZitSOicfI/iZlzBosy+LotCviHXnZ+lYOnTLIxxojYKz4maP804isFj9q2EngXH3Rxs7C2POW+uwzUQMg20tMTICSGEEJIctLTEyJOAlhZCCCHEh5aWGDkhhBBCkoOWlhh5EtDSQgghhPjEtrSc7T/Di9Nzb/nW3ccIZjf3t9/C3ceh6dAGWloWiTZ0QkjZ2R0xC2EcnwHVn5rlD4DKE7NMCCGEzIZYlpaD50/w4vxOz/Ntzx2L51DObL+/hJd9L3SpwEaQ2ORJkIilZZoAeJ/+Cngo+rci6aED/PZjU0AIIYTMBnvRIsLk66X7eDzCcZzGSuw5lFu+hzv4GmmSLTaCxCZPgkQ84npqBTiBAxt3YR7v/9nbx2P1x8CbZjmCeg7IZCSv+7mmAd9iHSBntvfKQtvC++VkmRBCyPXGXrR8q10/Z3hmPN+Gozx/e+53FwW8tQS87hcnjo0gscmTYN6WFs/j6EAsmSnciH/+GxEtIlwmsH0IL75KWTRStytJ8uOCdk75lBxgrTVYVjoFDmVZA+j29pO0VqZwIYSQ6461aDl7fY5Xp69w6/6IKM8px0aQ2ORJMG9Li4a4d2tF1NwglkxMh2mfPwYORG3kf2Q2TEYDy3lkNbY0fBfmIkCaokzKwcml7GlNtu2adaG3n1CWsqMdzxBDCCHkmhJrTMvSynu9QIh3317C+bf+8nDEZzXKjAymmBA2gsQmT4IkLC1+XBc/DlEmjqWl/a4vWH75odlwSUTB2A6pyQZdU4QQQq4t1qJl+d4dLJ26vbEqZ69FxLzlLy+LQHkdigD9Nd6+MHsoSWwEiU2eBIlZWlo1FGuuvaXl0wzw3a/7guXTx34+JdkNYL0ZGuPSAR6VgeKmWRfUuhJQKsjnt+xFDiGEkMUjhqXlLh7ozCAzpuXF+ds9q4unWnoRoF9iyUmTZKGlJS7+OFz9YysBPtPhTpJ+ClRFvGiy6DrUgbga07bs+ONYBtbl1Dp2RcexeINtzfiWcHybmmwLBuIei4A53DYFhBBCriX0iBsjvxl0UC/tYdVxcWLto2XO6AwiESxVeXKvIEYfIYSQlHIjRMvt27ethcmkfN6opSWRac9pxQiWXsDaItBtmGVCCCHXGlpaYuSEEEIISY5Ys4cWFRtBYpMnQSIecQkhhJAUQktLjJwQQgghyUFLS4w8CWhpITeZdimH+hw9Bs77fISQeMQWLRrN2Z/a/AT9uIhn2H+m256l0kuujSCxyZMgfYNwO6jnMshkTAocqbRLZtsUbv8n0C7FPWZQRzZA80FnnNXRkWdgIHbUJVFHhxXn6dxmsM3/fAk8n+b/dJbf00jUM3bg/uBzs83jK+C3Znv1XQ1wZo/6grpwvPnS+QOQqQL1L82GMbQ/mfwZMh2xRMu4KM9n+1/g/M5j3F8Z9IybFmwEiU2eBKmztLRr2NlSp3NdPwWOU/INb72lwYRmhi8+Cs0mCmGB5GEaSrMWplN/BLeqTvI0KAC5ek7h+hE2NTj4zFBHh4dznHM/6/NNEtv5xuH8XQro/+ls/0kvEoTy0IjvFWm5D0KOJtv/Fbir2zX9Gnhm6YRSj/mmHOuvPzAbkiH7M6D1F2YlgvwvgO13zEoIFTNXrRevO/aiJSLK8/K9hz0Bk0ZsBIlNngTzs7QY64T80JaMQPCCJ4beyoJgikdlJ6ZVpe0f0yTbt7xAfFwQSJ06cpkgoKM5bq4vYLLbhwNO6MgV0/HViueU0LIRDj9bw8+Z//2a7zW83RB8XlOuXkfJP0jos4OWtk495y/XA2ugpPBBI85nX8+w1cR/3nti20uh/5WeVXKUpSWou59ywQfMuUry/3mhbCLh/7+h/9nIez1YFz33YPkY/urJ+FAe+T9LuVnGT6TxMIuT0GOOi2d28nHfqjNsiQlbZy5YasJWH0nqxdvWivMNkKv6VpeMCJEe+2bbCGtMSbYV/l1SsJ+k8O2sy2UE20tyzJIci1zEXrRERHlOOzaCxCZPgvlZWrLYPmyh2DyG43bhOhVUHLWotIBd/19L30T1LW3dc++vQsLGxb/+8FW8Y/r7uHAqdmbx7OoYS0l2G4dynFqxBjcQNIfbdOGfAJ4gcMpoipD1G2m77zZ4lpoF7ZLR50mei10VnvK8PHJRDb7XoedFz+d/3i+vunJuLRiwIOiz3Lf6qYhtFY9Q3nF6z4s+336jH32+8fUUsquotoL9qnAfBcI5j4ZsaxWLaPWOG/pfMVbJUZbAdknqGBLqVdfxhYI+81qP4+AaXGzt1AYFyEiG/v/keBV58eiVRVy7WlX7dZGy42A/GwJB8A5wVwTHKFRsIBSXYyrkPP8oatmz3ASWnVC30/uyTa0zf5K6qKVGy/8PPa+g0eh7Vh/Z/t3f+tstKMvPcrUCdCW5b4qA+YMpuGe2jfjpash2tdK0zH6aes+ECBQ319/ufG+2kwtYixZGeb4hY1qKVWOyXsPWxgxkQGcP7lZ4nIA0KE+34O4Fv4wR5MvyI9p/07N/syTzQgWBNurFViAi43V5FKXR97tk5LloqPA8hXsUtlA4KB8dYcd7XjrYc7fwNHQCT1RYmtWK1b6wzW4/xZa7J0eMOl+fi/X02RUx4+9X8MXTpWhjF60BK2G+0X9pUPrXkMXq2rEXET2S4f8/ET9Pa+tmZcK150VQ9K5PytYG6xbNj4BfBiJiRBeQCpZnIjbe/4nZMC3/5ouNwFqiIum7fxUtI2ImzF9LXTxLjaT3jRXor+T6VMwE+735DyErUDRF+VkOboV2GW19p0/nJRCxAxFCgaWl/IaIHN1GLhBrTMu4KM9px0aQ2ORJcHNnD+kbYg2r8sYcvOn5jQxJE56lRd7cm4Wgu87O0hJJsWW+8366/FiT9fHjbaY8X7s0aEFcyCFUkdfuW4yC7S1UpvhuRSTo0IFwt4uOT1HBUhljgYnLsoiNnqXFpHFdSQOIYArvg1/1LTQTcP6TWZghaokJLC0iVTmQdwzWoiUqynPasREkNnkSLLwL/+yG/LAPio3OngvHyooz+Bbobo7vAtLxBlb97WSm9C0tLRS9BvCyg0vz2BzbOGax4eygFv6edXxIaDzTcWB6kO29XhCPI5TDO6oFwtmQI0adL4oOTo7X+mN42jWUj83yCFTcTbYUal12B7t82rvAprV54yL6/zfQjdRGrRwEwYi+9qlnN+nYkfC4kYNDeXM0q+13zSBdI1jaImDizCC6gFpq7MXGAJ/GnL0Uovz/0SfAsA/svKlPZzx0JlLQrcTZRvbEcy53to9nL06ho1tw625vUK5Og35x6m01LGHl/sN+FGiBsYemQy0t8xEuatlQ87C8k9ZcPMUjOOU1tLryM5op4LjWwtZOwSvvo3322lff3zeMmtQ9c7I2LOEWRBs3aztzYHG5OH5GGwLHnFTrHLwhhrf7rKPmJjBT44bQqZewtyqi8mQDDaubPOJ5Wa/B7Y1L0oGjg90tvWdpeN9x+8n22loZ5ab/jEIaYGn+0WwGOwbPrjLufBPqGX6u10W4yRGaa6FnO1weeuZVYA8KKj2seX51YKxT7sfWCs7X2+4/yxt7wTMevo4xDBxT9q+toSwKy/+fGH+vh+sZ/h+LRsezaDeNWdWuGa/bZWi7x18CD/+sYeWjUevMn4bGnPSO+xlQ/am3qYdXNuJ8b/5Nf5CwiqvwEIecqIYJFhoVGo6IU7Wq9UTqG4Arh9Q7o+JDB9uGWZfPHv7MrOhA3cB4/hdA9xf+4vB+A/uQAegRN0ZOkmC8aCHpQKf26njKXTRijHmYL2o1OClTuBKy6DDKc8x83szP0kLI9WTA8hbLykcISRu0tMTICSGEEJIcsWYPLSo2gsQmT4KbO3uIEEIIGYSWlhg5IYQQQpKDlpYYeRLQ0kIIIYT4xLa0hKc337obBE08wPMnB3jlb8Xdxw88f0JhaGlZJNrQCSFlZxd7Gw3LGRfhaYcf9P0wEEIIITMilqVlXJTng+cvsWTc+z++v4SXz/YHpr8njY0gscmTIBFLyxQB8PDpr4CHon/Vs+RDB/itie9BCCGEzAh70RIR5fnug5AjueVl3FoyyynBRpDY5EmQyHRnT62os0gH4zyfX+D9kIOo1R8Db5rlCOo5IJORvO7nmga82naAnNneKwttC++Xk2VCCCHXG3vRYhvl+cDFq6Vl64jj88BGkNjkSTBvS4sXfr8QjiUzFMreBo2e+qYIlwlsH6o/T6AsGqnblST5cUE7p3xKDrDWGiwrnQKHsqwh33r7SVorU7gQQsh1x1q0WEV5PniOJy+X8F7Yf38KsBEkNnkSzNvSolFz3VoRNTeIJRPTE62629bYIlYBy3xqIjg8shpbGl7k2o4IkKYok3Jwcil7WpNt6ovd0NtPKEvZ0Y5niCGEEHJNiTWmJSrKsw7QVcFy/+G9VFlZFBtBYpMnQRKWFqfcRNkpoNksIBPH0hIEQwtie1wWUTC2Q2qyk2KXEEIIWXisRUtUlOfeAF0jWA6eP+99Lg3YCBKbPAkSs7S0aijWXHtLiwYf++7XoWBkj/18SrIbwHozNMalAzwqA8VNsy6odSWgVJDPb9mLHEIIIYtHDEvLXTzQmUFmTMuL87eN1eUAX+tc51cH3nZNB/7c59RgI0hs8iRIYvaQPw5X/9hKgM90uJOknwJVES+aLKaP6UBcDSJbdvxxLAPrcmodu6LjWLzBtmZ8SzhsTE22BQNxj0XAHG6bAkIIIdcSesSNkd8MOqiX9rDquDix9tEyZ3QGkQiWqjy5DH1HCCE3B0Z5jpnPG7W0MMpzCCNYTMxeb/pRt2GWCSGEXGtoaYmRE0IIISQ5Ys0eWlRsBIlNngSJeMQlhBBCUggtLTFyQgghhCQHLS0x8iSgpYUQQgjxmVGU5/D2JazcD8UiMtDSQgghhJDLEEu0qBO5A9y9EDTREyzqXM7bfoDnz17DGfKMy9lD08HZQ4QQQoiPvWg528fzs2U8mBhXKH2ihZYWQgghZPGxH9MyMcqziBWv7CWW3ktX/CEbQWKTJwHHtBBCCCE+1pYWf8wKeuNVDp4/w2vn4tgVWloIIYQQchXEmj0UFeW5z104t85xZhF7Zl7YCBKbPAloaSGEEEJ8rEXL+CjPZ9h/9gz93qIDuKfAD1LUP2QjSGzyJOAgXEIIIcQn3pTns308e3EKb8LzrfAsIh3PcgA/uHP6pjxz9hAhhBCy+MT20zItHNNCCCGEkMtAj7gx8iTgmBZCCCHEh5aWGDkhhBBCkoOWlhh5EtDSQgghhPjQ0hIjJ4QQQkhy0NISI08CWloIIYQQn9iiRT3jqht/Tc8Dpy0BOiX6SdhnSzqwESQ2eRKkdbpzPQdkMkCpbTaEiCobR7tUQoyPe3TkRBk5USYTf98oFrsuHbn/Wo8c6h2z6cqRc5bq6LRLsb7zaL6U66jKdWj65MI9aJdGXF/7E/P56gzrcRnSfg3Bs+Kn3MgH5iquIfqYclBkhne85H1pl2Z9P+d/DcQnlmjRKM9eNOfHj700GOz5DPtfnOPWypJZTw82gsQmT4K0Wlq2D4HaulkZIqrsIv4PZ6HZREF/PAf+m01jaNYG6NTxyK2i2+2i6zqozORXYPHr0qk/glvtwq2tmS3z4BQuVoETwFkxm2ZEsVWR+/oL5M16QL5xiO2sWQnI/0I++/MYz958SO81ZOV/VZ/ZGoq1FrbcvdHPt3AV1zDumHJQdBtDWy91X77EyTFwfPKlWZ8d87sGEmAvWs728fXS/ZBDuSEOXJzfeZCqQIkBNoLEJk+CeVtaAitJkAbeoqTdDJeVj8x2JaosgqCR9Rp8TcE/ugiBXMZBuVmGIwf03gZz/Ya6swdUg89mt1HF7sW3nZhch7pkRTEGH50bHV+tnLrA6nADNpI2Sl7dAyuSL9CsrEP6BuvtO09L0ijSeA3+239czdzZc+Fs5LHhuNizrc8VXEO7pMcL0myOqxaWTOb33u/RUfn3smxzf4Lv1q9Dz4pqcWOv4hrIIPaiJTLK8wGev1yCM0bPJI2NILHJk2Delha1kkgb6aeWiI9H+nMsyJ9cAahJw6Rl8nLWJ6psAtnVMRYBafwPuy5qxRpcbbQ1HW7Lu6HPqSsnC7HiyIv+JX8grkNd5o33g+6U0Sw7xipk80Odx2ZR31Ib5g1V3vif1rC+voWNSReib7ByzbOyJPmN2qj08YTrSM81XI4O9lzHq3N2w4Frq1qu4BryDfM8z/C4+cagZWO99nMLUZ9HQ378iljzRHh2YwvrxdZFy8kIruIayCDWouXs9Tlenb7Crft+19Cd8y96Y1fO9r/G0nuDUZ3ThI0gscmTYN6WFnmRlx9sk0SIBKg14Uh+pANTsLSd8k/tE1U2kXwZTqX/djK6X31OsC6xUctOt1WUxjsQUiO6C0aQL9dwXOlbiNq1Mtaq8xdf+Yaa90elDydeR1quoT9WwrcoNAtGeOX+0KvbWOSf13U2/DpnN+BEdBEtJu9gY+sNs/wGtjbeMcuTEOGiXb36/+e4fUsqSZxYY1rGRXn+9vwVTl/4FpgXImxOXzzvBVZMAzaCxCZPgrlaWtqAvDT3LCZqaQlQ0/8wjnmDiSqLRk3qNaxqv7r3duJG9quHWXEcs+Rj3zUxjutRl3njWVoKTWkogy4rS5O4KNvqWhk1tbiLUq40i9hMoF2Y3tIipOQa/LESKrR8q4I/zkLS4c8mCqjO3o5nJfPFsX6HO/ZdRAvBPkRLym9aBa3i9yjX9s12S4oiyM0iSQfWomV8lGcRMA9864um+yu3sHL/AdLUU2QjSGzyJJinpUWHJkB+9ALzdr3i50p+U/40PV3jIwvBuJWossmYgabmR9PdHP+mqv3FQbeyvBTiJHTCXWwaM32AGd1fivMjtfh1mTd9S0tLft9b0ljaWVqU/GYRzUodbWk4tWVJpL2/hKVFScM1TI92DW31uxk16fq1Ui330DDfpfddN+6Z7RPQMTuehaVhLC6znRVIpieGpeUuHtxfwkszpuXF+dtDkZzPsP+MlpZZM09Li3br6HAUx3QPYUuSiA8nJz9v8muslpdC0HW0K58VgdMsACX52NiyyP90M3tBx2isF9GSH81BK2wWG85Ob8BpRX5EeuWqFHrdJxU45eHm4hu4R29IO2L5I3VN6hIMGnTKTZTli5zHYEBvHO40U4fyZXneyiiU11C1VDrBQMf+9SXfjZeea3hHnpvK0LMyDrXmBdYx0yB7DbU/PmnSoNPUfQ+zRAe7F+QtDMfe2DS1Rh3pS0RowDtJjljdQ1i+h4fGonJxFtEy7j0MLC60tMyKeY9pCQ/E3RYR4y3LNu/nWH4Mg7Juo/9Z70cyquwSeG/yciBNhwONQtCwaxrxdt/+NzSLOeu3fhsWoS7h7WPrM2O87jBM0yeWhTfeuDhsmRpPeKBjkAa/i3mzqNcQfmbNYGIzuNZLE/5x0/c9zBB5ezv0rsn/3+n9TyU44J30iSdaFhQbQWKTJ8HN8IirP6DBLIzZ0Dn5XtoRW8tGmOtdl6sg35A6SoMXR6AGFiH/hfZk7BusP6h0hPOuUXgDUv3BqPPgOlyDLVdxDYPHDKaMGwuOuzkothfivizmNSwajD0UIyeEEEJIctDSEiNPgpthaSGEEEImQ0tLjJwQQgghyUFLS4w8CWhpIYQQQnxii5aRUZ696M7+Nk2DLv6Tx0aQ2ORJkNYoz/4gxNHTaUeX6SC16XwdpCnScTrq8hXw2wxQfdcLUpg8co3TRnnWabZJOZkhhCwcsURLVJTnpZX7ve0PBx24JI6NILHJkyCtlhadBjgutsbosmlmwvgN/uhIx+O5mkjHKapL+78Cd7tALmc2JM0lojzrNNvLzosnhNwY7EXLpCjPKcZGkNjkSTB3S0svequmIauCF2HYlOXq0lSFiCgLpoZeON4ExkY69ggisWrKoVQq9SwZKppm3Q6mqS7I/xn4K7OcBmJHedbHLLhf/j27aIWKilg8XTRjQsjiYy9aIqM8A+enL1LbPWQjSGzyJJi7pWVlEy3XNMzqvrrXMkjD7LioBo121UWhfGxR5jfcur0VM4jH2EjHQqe+CyeoZ7cKNPvnuwrSVJc04QnS2FGeB52TMRouIcQWa9ESFeV5wFPucFkKsBEkNnkSzH9Mywkqxi23NkY9P0jtXaAXhl/IN/oiJKrsMkREOtYw+jtBPTMFHNeeXq3n1zTVJUV4gnSKKM9j8RxwqcMu3wmX77xLkkYsjiozuxNCrjexxrSMi/I8zFtLS2YpHdgIEps8CeZraemg/ihkMem2EoxwqmNIIiId91xtm7KdWqyup3ikqS7pwrO0TBPleRxREYsvEc2YEHI9sBYt46M8+4ESezOJ5BPuKfCDFI3FtREkNnkSzNfSogMqHQRjKTv1igZv9tFQzpVQwDAvFL9Zjiq7FOMiHauImG4mks8soy4nUZf00Le0tGJHeSaEkLjEsLSMi/KsgRLvY+llMOVZ1MvddAVMtBEkNnkSzNfSkkd5qx892HHXUGwWTFdIHo2qSJqg4XZcbNWAsqMNdlSZNur+9t7MG0mTB1EGAd3GRToeEhHVfvdUMPB3fKTjWUddnmddhPa7QDUDHP4t8Cz5qc9TR3mOJCpicZxoxoSQ6wQ94sbISRIEXTNxp0tHoGMjdn+IbiNuEMM01SU9qO8abAK7iBc0MaBTL2Fvo0ELDSFkIjdCtNy+fdtamEzK541aWtLqYG5R6dQ/Rm31w1S8qaepLvNDxZ/Tj3ar3Uo0mxBCLKClJUZOCCGEkOSINXtoUbERJDZ5EqTVIy4hhBAyb2hpiZETQgghJDloaYmRJwEtLYQQQohPbNEyMsqzIaosSWwEiU2eBEkNwtWpumGvr1H4cWQu46tkCnoxkmZ93sv6XbmJyD2bNsozIYTEIFb3kEZ5PsDdkUETo8oUzh6ajsWYPXQFU4Et8abbNuZ/3kG00d7DRiNwOHfTaEO/hrKzy6nLhJArxd7SEhXlOeURoG0FyaQ8CeYrWFR8BE7SprBihCJED1ppwlGQ+47lfMdrgbO14DPhcw7Wp1SvS7Kw/gxEqrZ3Kx84grtw3d7xNHpzUB5yjudFtw5c2Jtz5kLegcfWJbg23RZelqKo8ylTXt+VMUWUZ0IImQZ70RIV5XlCBOiksREkNnkSzHdMS+D51U/xgh42Uag4cM2+VdcxDa02yJVQFGQXTsVvaNUFfD/Cbx4Nz+OsWRXaJfUuG9pvp4zJ8ZNF/ITqoVGXXc8z72TGRqPON6SeeoVVc8xWP2yBF3coCBZoznkYWFyi6uLfaz1u2QmuU8prUhp1vktc31XgCb0pojwTQsg0WIuWqCjPkRGgU4CNILHJk2BxHMuto/a03z2Sb0hDuytNaWcP7lY46rE01k+34O5Natna2EUr5HTNb+QPJ/U9yFv/8VHI6pEpSOPf9KpyOdZQKweVWYHIBpyatbFY1UWOK4LOv04Rbr0LHnO+K7u+6Zh5lGdCCIkg1kDcqCjPthGgk8BGkNjkSbA4s4fWUtM1sFZzjRWin5JyuHoVdUnT9XmWlllGeSaEkAisRcv4KM/RZWnARpDY5EmwOJaWJgqhgRcaIRqb0pJmN+C4e/0xHkJnz4WzESicYy8quNKpP+q7dkcem6gMNIBeAzkwuGMEer6dWmLdJYrOpvKqeRV1ScH1hWGUZ0LIPIlhaRkX5VmJKkseG0FikyfBIlhadOxJ+aiImlMxXRYaIbpq3v6z2N4MRYD2yjZ7DVt2YwvHhWD7FmrrIn7MQNZ8Q8drhPermhg1/QG6FyNHa/eTg4rZ5iebt/+IY7ZLJkqzP3bEv95+PfWcG04/OnbFcfvXPrYu/sDjfvRnSYEgizzftNd3dVxNlGdCCLkIPeLGyG8a6ZhOTNLOZaM8E0KILYzyHDOfN/P106Jv/zqw02e95k4e+EoIIYTMCVpaYuRkkRkUZMMUW8kNZiWEEGJHrNlDi4qNILHJk2BxZg+lHfUDMzjjJpwoWAghJP3Q0hIjJ4QQQkhy0NISI08CWloIIYQQn9iWFo3k/OJU3fYDt+4+xoO7Z9h/9gJmk8/SCu4/vIfwrGdaWhaJ9nQB8NrvAof/Kgt/CTz8M7DqbyaEEEJmQSxLi0ZyfnF+x3PVr6kXH1FFitn2+PF9rCyZ7SnBRpDY5EmQiKVlmgB4Kli++zVQEQ1ckfwfPzYFhBBCyGywFy1jIzkv496DkFXl7AznS8sDVpaksREkNnkSJOIR11MrwAkcWLsLy/8ZeP8nZsWOeg7IZCSv+7mmAYe3HSBntvfKQtvC++VkmRBCyPXGXrRYRnI+OzvH0nKaJAstLXFQF/SDsWTiRBD+DKiKgqj+Cvjxh2bbeLYPAQ2oXBaN1O1Kkvy4oJ1TPiUHWGsNlpVOgUNZ1mDQvf0krZUpXAgh5LpjLVrsIjmf4ex8CSnTLFaCxCZPgnlbWvKNLtxaETU3iCUTxyPuT6bqHqqJ4PDIiviQ7KQDdESANEWZ9AIdS9nTmmzbNetCbz+hLGVHO54hhhBCyDUl1piWiZGcU9g1pNgIEps8CZKwtPhxbwpoNgvIxLK0BIh4WXa1f+lyiIKxHVKT5aBfQgi59liLFptIzmdnr4AfpE2y0NISh56lpVVDseZaWlq+An77bkikfAYcSnYJIZHdANaboTEuHeBRGShumnVBrSsBpYJ8fste5BBCCFk8YlhaJkdy/vZ8CW8Pj9NNATaCxCZPgiRmD/njcPWPrQT4EfDLXwPPdDyLGdPy8IkpG48OxFW3+mXHH8cysC6n1rErOo7FG2xrxreEPdfWZFswEPdYBMzhtikghBByLaFH3Bj5zaCDemkPq46Lkzg+WuaJziASwVKVJ5fe9wkh5ObAKM8x83mjlpZEpj2nFSNYjsyqTj/qNswyIYSQaw0tLTFyQgghhCRHrNlDi4qNILHJkyARj7iEEEJICqGlJUZOCCGEkOSgpSVGTgghhJDkiC1aNMqzTnnW9Dxw2gKN9Oxve/Lkec+XS1qwESQ2eZ8O6rkMMhmThgLm1HMxHLK1S/3jmJSrX7Ff19454zmO81z8D9R1GsdzhBBCyHTE6h7SKM8HuHsxaOLBczzHAz/q89k+nrk/wMOhz1yr2UPS6OdOyjic0XzgTr2EvdD04nYph5Py4ZVPN26XSkAjjpt+n/j7+dOoNxrbdP5GCCFkauwtLWOjPEtR2Dvu8jJu4TVGh1NMBltBMilXgoCCR2XngrWhU8+NtkB4lo0cSiJGAivFgHHmAmshv25tlMw+4f38c+XgG2WCz4TPO2gNKtXrkiwsOAOWn+D4E4i6vk4duUwQfNEcN1fXmcs+Y88X1F+3hZelaNL9nHQNnT9InaoTvgNCCCFpw160RER5Xr73Ns5fBN1DL3D+9r1UxR+yESQ2uaJu7rutItY9F/eyHHJzn90+9LZJ8SD5BlwN9oeq2acFVEINN45RdoJGNoOKUzbH1Ma6AsfVfTS5cCp+I6zncmsaXlDJoyFlNQ19bGiXHLjV0H47ZTnLJET8VGQ/bx9NVbiORRdQ1PVlt3GodSvW+sc9DCwuUefLYvtQQwqoh9zgWqS8JqWR93PKayCEEJJ6rEVLZJRnyd822x8/vo+3U2VnSUvsoTXUeiGLVyDNKk7NmlfWEyZdVF3HH9fS2YO79TTUTSQN+dMtuHt9uTOaNnbRCrm89wXAxO6szgmOj0IWkUxBhEETu1YtftT1jcHqfP698a9FxFnvosacz+aY2Z+JkKoMhAQghBCSfmINxB0X5fnA/Rp904osvD5LlWyxESQ2+bzIN1pYcyc2+VfCWs+C1E9X2bhfxfnmfQ2EEELmg7VoiYry/NbSkr/gcYbX2pOUImwEiU0+N9q7OHZWoKGOHXcv1I2kxhcXzkZgMTlGoG069Uco93zb57GJysBYDm8MzKRBHHq+ndqVd6XouCCvKldxPptjckwLIYQsJPGcy+nMoBen8DTJrdAsovB24dbdx/5MohDXY/bQ/xf1nBMSB0oRLW9ci44/GS6T0pa85aPkDd4NPgtptL3V9RrcqogQbyWEbg/Gfeig0nB5sYVuYDbQQa5O2Y/DU6yhdlxGGcG+OjhXu0YMvf0i6ukVh47psY6a689kUrExWFVz7b06jrg+cx0qmhxzUh0P1OuqGnu+oforwTVMOl/ENXioaHGOsdZiFxEhhCwS9IgbIyeEEEJIcsQa07Ko2AgSm5wQQgghyXEjRIuNILHJCSGEEJIctLTEyAkhhBCSHLS0xMgJIYQQkhy0tMTICSHzReNwXQjDQAi5scQWLaOjPPvBFP3tz/qeclOCjSCxyVNHL8bOCDf1UWUWaFDEePsNxQeaIfHr4k+xvsz1X+QzoJox6bHZRnzkuy/V0ZFnbirfN+ZZHd5Xp9hXnLBH6EvgxcC6mueTXAFjnonZ86X8blXlXJo+ufBbMVI0tz8xn6evpySIJVpUmLw4v2Pc9Yd8sRw8x0sNpuhtv4PzL/bpEXce5Buet9cLsY6UqLJIfPFRaDZR0B/5gf9K0ziZtTDq3E7jA/XjIc2CqLpEIA3UI9fEJXIdVGbxy/Lpr4CHXaAi6aED/PZjU0CAU7hYBU4A9YkYG31WRzyoGudrVpHU/RhYs34+rwfTvBQo0+5nxZhn4qootirye/ELE/OtT74xItp+/hfy2Z8PxHoj88NetEyI8nxrOfDjfxfOrXOcpUi12AgSmzwZ1MmaviH6b4kl+aG4yjfFQHwE7u8HHNlFRGvWAI6zdtQ2ti4e4+9LZw+oBp+VxqqK3cv/uL7/Z2i77LH6Y+BNs0zkhvtq5dSVW2OtMcLf31Dj17OK+GlYc3qR1k1ZTqOXBx8Y2C+GRSVyv1A95Xmve+c29Z1Qz7GM289s12c5KPNikFkRWDpH7zf6nvnX1nsp8FLouxh7fRP2G6qLXo/dvZn+mRhNcLzgWEG9LJ6NnqWalrm0YS9aoqI8/wB41VMpB3BPX/XiEqUBG0FikydBp74bivJcBZqTYzVfhuzqmDfRyGjNV8PYughR9+XUldYzxIoDnMzyh+fz34hoEeFC5HvIIeOU0Sw7phGz+ZHXxiMUvVytYZ5LY1P2yEU1eMZCkc29UjlfxenHlqq6cm6/SB8YVFvBflW4j0ZbBS8wdr+helZdEe3qXdl4wI6o53gi9tP/sVZRHuUgSrmLLcswF4NR3f2gq0HDPv6eaXR4tcaqZ+lg3yBqfdT1Re0ntOU3olcX2e+49w1FMHSvYzwT48ljs6hWlKBuGnC2hvX1LfQioYzDWKppmUsf1qIlMsrz3Qey/sKMaTkAbt0yBenARpDY5EmQ3XCw4wRvGAUc12bUxz+OfFl+EILzxXnTuwIi6jL3+xLw+WPR5aKC8j8yG242amFTM36xFQjaEeb0YYajl0tj/bRnaz+FexR+g9eQE0fY8SKbd7DnbuFp6ATahRS2wO0W+s+ETVMZMHo/qctatV9Pacj6PRZR9Yxi8n7FavAykMXq2rGF4B6O6q5VbclFqWqZfM9GM+31CflNyI79/dYG6zaSqZ+JaPLlGo4rffHarpWx1ru/ZBGJNaZlXJRn5e4DX8xocpb6wRTTgI0gsckTwbNw9N8wbN+8pkPfdmpYPQydbyhg4/yYUJeI+7LiiKgIEa/bIoL2u75g+eWHZgPxLC3yRtwsSEPidR3avAFPQGNM9b5bP9mMbWmXQm/q8kzYviRPu9+09Zx6v3kzdT19S0ywT2soeOtUTFsX+Z2orpVR8/RbHZVmEZuTBBRJNdaiJSrK8wBn+/ji/O2euEkDNoLEJp8/2nAP9e1eOYNvNO7m+LeSXrRmK8wo/dK+WbdhXF2i70t2AzjpFepb6GbfdO0xRV0+zQDf/bovWD7lDCKlb2lpoeg1LBaWlguRuNuo9SJ4XoxQ3ieLDWfHb4ACdOyBN7aqg5Pjtb44bddQtupJjdpvBc5xaDyU1+iZ5ch6RjHtflHoMYfGbbV34bfOUffsIipCfYtmvHr299PDTyFcp34mJpPfLKJZqaO9twM5qByNLDQaMNE6/cvfd3/z0UfdjzT97o/97X/8nb/NS7/r/jG8j0lnZ2eJJeWbb76ZST5f3G5tHRrQspeKLVM0oqxfHlVmg+5f7I76uFtb7x1vveaarYPb/bTeDRUL/9Qt4m+Gttkwqi5R90UJlw/XQ4lbl3/odj+S9nggfWDKiFsrdmutWrcY58t1a9313vcn35Eco/9dteT7Ccr8NPa5X6/JFkNLjxFsL3aL+jmzo+iqfplJvec3Yr/BekpZMfw8RdUzijH79c7ln6P/PzX6f3GAgXpKCt+XqHumhK9/4AImXN+Y/Ybvdfh3IpKpn4lJBNc/6j7+dyn76MKxIp8Xj9H7kauHUZ5j5DeHoGsmNLjusqhvg90fotu4ZzbYkqa6kFHo1Fd5FZZ3/cbMZ5ClDe9aGzN8FslcUKtwAa0RY3nU6vp7uNVKzGd32v3IZYk1pmVRsREkNvnNIYvtWYoEoXPyPYqb04iENNWFjCKvjXj+ugoWFc1BF6U6u2P3wiLhjbmS782biHR8MrJLTGkWRjuXG4nnXO736PVekblCS0uMnBBCCCHJQUtLjJwQQgghyXEjRIuNILHJCSGEEJIctLTEyAkhhBCSHJai5Qz7z4IoziY9GwyK2I/+/LznyyUt2AgSmzwRejEwpvHXMr2flysNhhYHdeg2TWTlqP1mXvYV8FvdLuUnZlOYqzgmIYTcQOwtLUsruG883j5+fB8rS2a74jmUM9Gf7y/h5fN0yRYbQWKTJ4KJgdF3Hx6HaWbe+LMlYkdW1v3GRICempOPfYduQWTlTz8zBROI2u8qytr/Fbgr23M5syHEVRyTEEJuKJaiZRn3HtyTv4azM5wvLffWZRV3gujPy/dwB1+nytpiI0hs8jThT+ULPE8ORzPtT/WLa6GJjKzcs/oMHdeLwBq4cTflYzxuxuIrSe//xF9eVU+0u/6yNvZh64R6q9X1tu4gjNtPuYqy/J+BvzLLw1zFMQkh5IYy1ZiWs7NzLC33/fR/e64RoPu8tQS8DvcdJYyNILHJ04S6T+9HINVYHy5q62ZV8NyrT2GhiYqsjJVNtMJRWAMrjBcH6AoiQH83GK0Zb0rSrhJt4B/+jaw73mb85w+A3JdyG0wQw3H7KVdRFsVVHJMQQm4oU4iWM5ydLyGkWVKPjSCxyW8EkVGeT1AJIis7ZSTqW0mFy11p9NXCwqjLhBByI4gvWoa6hpS3lsIDXNTyAvwgRaLGRpDY5NefwGW+sZZo9OReZGUpe+SiGlhSui1MNcwmDoElJeA7Sav+Yo/lD8xCiKj9rqIsiqs4JiGE3FBii5azs1cXFIlaXV73BrEc4Gu8DTPCJRXYCBKbPH0cwz31l3QsymzcSo+LrHwKFw5WvGU9X0U+OZ6LEaCniKysxpPP/UVAB6lu+ouKzrpRC8v7T3yLy28/NgVC1H5XURbFVRyTEEJuKLHd+B88fw48eDAkSnRK9AucekNblrBy/yHuDVlaknTjf/v2bWthMimfL2r5cC6IkWKr68d50QGwQTdNsYbacRll1OAebmAvar+JBBaXwZlHOrjXCQ5aLKLYbOK45uJw25c14fL10HaffZQyh3DcDzGwOZKvRIy841sg8JfAwz/7lojPHwN/+ltZ+ACoiGjRgbg6hmr5H8zA1jH7eVxBmQqow381K0q4/CqOSQghNxPGHoqR3xxGi5ZLwcjKhBBCLslUs4cWDRtBYpPfHBhZmRBCSPqgpSVGTgghhJDkoKUlRk4IIYSQ5LgRosVGkNjkhBBCCEkOWlpi5IQQQghJDssxLf//9u4nNnLrzhP4t+7CJPBlBR+mZYzQciBCEjQ++DJwA9HBiRpQzQgZCOqpchbRYbEzRnyJeDIqBZ9YNrA2AgNz6EHiqrTQ2EBI1UKCfVCwCpyDD15BEljrVkOLCBPAaF8Mp6F77e+RjyzWP9ZjqSSyWt+PQT+Sr1hk/VHzV4+P7xe9pVlTCRQ3gnxEQX3/250V9mm5igaKRcC2drG/WjW8ZfhToPxjPa9vDSYiIppg5i0tMVmeLw6/wOXdLax0pH7ODpOAxKRMTfMMsGZx7gJzpmOcfPIusCHxaJBBODr4GhER0QQyDFriszzP3NtAkOQ5i0wCEpMyNV60ojL/tEekHeqtyEBkc2/CS8Y3RGUJyOWkrPilmjpGtW0CS3p9WBdZF91uSeaJiIjGaaQ+Ld1ZnrPOJCAxKdOghsPP5Wuo5S3YNRtWroiO0fFNfP6BBC0SuAyxfQwvn5AtMVKrJZOUp3l1ccpXtICFemdd8Rw4lnmVYDrcTqYFm4ELERGN1whBC7M836S1aguuU4Dj1lEo1CUgSDjomxryPmEWZEcCDs+8BB9SnDWhMgagJpGJHexc6h45sm5XL4twO2FL3cmO1xBDREQ0FsmDlj5ZnrPOJCAxKdOgWlosuwbbyqNWyyOXpKUlSCr483f0iiuSCMa0S808c+QQEdGYJQ5a+mV5zjqTgMSkTEPY0lJ3UHBc85YWlUTwu/faAcsnW345ovlVYLEW6ePSBB7YQCGSmFi1rgSKeXn8pnmQQ0RENEzioOXbyym83NXp9uLwMR4+fIiD82c4P3go849xqLLuZoRJQGJSpsXvh6v+ZxoCfKqu4sn0Y6AswYuaDD4P1RFX4hLYlt+PpWNZdq36rqh+LF5nW92/JZo12pF1QUfcUwlgjrd1BRER0Rgw91CCMh1NVIr7mLNcnBmP0XLD1B1EErCU5Zs0ziSLREREUbciaLlz545xYDKspC46YDnRi+r2o1ZVzxMREY0RW1oSlERERJSekcZpmTQmAYlJSUREROlhS0uC8ptv9BMSXaN/nwb+2zO9QEREIba0JCiJiIgoPYZBi8rirG5ljkyPDyN30R5hL6zbk6VsMQlITMosO/t4CdPTS/j4TK+IiKsbxWdvF/GZnk/bZB9LEx//MDfWz4aI6EVm3tISk+X5aO8pplZ03coUnnYENOkzCUhMyiyb+9dj/PFdNeh+r7i6ZPyT7E9/V8NPp+Vk+7bp2Lyy3dsVjPe8PCnHMnh/Zx8/wJNftMb02RARvfgMg5b4LM/L9zdwL1iYmcF0JKDJApOAxKRMxWdF+SWufo2rqeuX/FkFPwzqfljBn/Vqz4C6zlaXBt7u97wDBCfZZ8/09KvIqCyDjtM7Dgvv/c7GG5HjuWrQMBHHMmR/Kpj81fA8lkREpI3UpyU2y/ORi2cZy01kEpCYlKl4ZR2/+aM+Gf7Rwvvhr3gJON5w8YvgRPkLFz9973RoXWeryxp+9czFu4YD1s39XUyLwKDjnNvGH9Q+fuLgj8Hx/GEbV01NNBHHck37IyK6rUYIWmKyPB/t4eHTKbweNrtkg0lAYlKm4wzvv6F/pb9hI8ya/Nku8Jsqwh/qb1bxm5/o+bi6q3jTxqvv62OR6YcfR3M4DzjO6zIxx0JEROOSPGgZkOXZyz8kAcvKRuQyUkaYBCQm5c1r4uP/HmkxeVbHOGKP0ah+Gw7+7g/Bsbj4pyf7+lLHTR/npBwLERGNU+KgpV+W56O9hzi4vIstHbAc7WXrDiKTgMSkvHnneAILr+ils49L+J2ex5vrwPuR/hhnFbwfVMbVeU7xRHdyUf0x3jNuGNAdTb3JwpPV4FJHzHH28dnbObzd0YnmKznxlzH99qFeNjEJx9Krd39ERGQqcdDSm+X5CF+rgbCeHYW3Qx9lbGAsk4DEpLx5a/i3f9oJO3G+8WQBP/ldXl9+WMOvfuG2O3i+Ib/w3wXee0N1PI2rA+ZWNvF/fxo85ybenZeT7tAOqfP4V681QfWBKeA3z1qRTqRxx6nMY+XVdv37r7pdHVC/wZPm9/Duv93Ty8NMyrEog/fnd4qWY3yvJp+Nquetz0REcTgiboKSI+IqweWQSJ+Zq/rs15jefwXPfmUaKARezGPhiLhERP2NdPfQpDEJSExKUlTLwhiDBHH2//6Kn6wmDRKUF/tYiIioE1taEpRsaaGbwJYWIqL+2NKSoCQiIqL0sKUlQUlERETpYUtLgpKIiIjSY9jSorI8H+D8Ui8qKoFiZCA5NbjcgfeAKcyuRHIRaWxpuYoGikXAtnaxv1rFttGw+58C5R/r+Z8BpYd6noiIaDKZt7TEZHn2AhY1uJxXdxeXXzDL81g1zwBrFucuMGeYJwifvAtsSDxakmnDAj76UFcQERFNJsOgJT7L88y9DWzd7xhxLlNMAhKTMjVetAKcwcKsXjXUW19623jm3gS+r+djVJaAXE7Kil+qqRjkZ1SawJJeH9ZF1kW3W5J5IiKicRqpT0v/LM9H2PNGxH2KqdezlX/IJCAxKdPQKOaQy9dQy1uwazasXBHROMLI5x9I0DJ8BJHtY6AgpS0xUqslk5SneXVxyle0gIV6Z13xHDiW+UWpD7eTacFm4EJEROM1QtAyKMvzMu5n9PKQSUBiUqZhrdqC6xTguHUUCnUJCKpY03VGPt+SeFKijbVX9YrhHAk4PPMSfEhx1gSaEoDUJDKxg51L3SNH1u3qZRFuJ2ypO9nxGmKIiIjGInnQMiDLc9syrOlL9bDMMAlITMo0qJYWy67BtvKo1fLIJWlpabzmByw/f0evuCKJYEy71MwPyhhIREQ0osRBS2+WZ3Vn0WMchkHKEdzznkTQqTIJSEzKNIQtLXUHBcc1b2n5JAd89147YPlkyy9HNL8KLNYifVyawAMbKKzrZaFaVwLFvDx+0zzIISIiGiZx0NKb5XkG9zbu4vLAz/Ds9WlZuY8sdcs1CUhMyrT4/XDV/0xDgE9VLCnTj4GyBC9qMmj5Uh1xJS6Bbfn9WDqWZdeq74rqx+J1ttX9W6qRCMqRdUFH3FMJYI63dQUREdEYcETcBGU6mqgU9zFnuTgzHqPlhqk7iCRgKcs3KVF/GyIiogRuRdBy584d48BkWElddMByohfV7Uetqp4nIiIaI7a0JCiJiIgoPSON0zJpTAISk5KIiIjScyuCFpOAxKQkIiKi9LClJUFJRERE6TEMWtRYLMEtzXp63GfU24tDPH4YHbMlG0wCEpPyRdMoJk8J0KwsIZfLJRvkbhg1CJ53a7aUZ3qdR2WqVuvVNHicmWblQ+SWft8z+u4or2+QRrGMXPFQLxERURrMW1pisjz7JLD54hLTvRWpMwlITMoXRxOVpRzytRryKgDpyopYKVZ6AgBPs4IHbhmtVgst10KpY7sRqYBFDYKnslGXpPwsko3aKFP1IRz7r1jcfDUykF3c64sz+LWvrf8tUDtGpe8bQ0REN8EwaInP8uw5cnF5937M8P7pMQlITMp0NFD0WjbUtIRisSgnTv+krJbbJ9F+6/prVh7ALUvgoYIPNQUjxElQspQLEjPqfS61T+LNfaAcPHZ+G2XsXr0lY+1L4K0f6YUuJpmqG39GDX+L8vYP9IqY16c0ivq9VFOkJWbIa8fa63AW/4qd/a/0CiIiumkj9WnpzfJ8hL2nU7CyNAxuhElAYlKmoVnZheUGJ+Cy/No/lbXzWN1cxKLzKDLY3Dy2j+soYGHowLnzcyoNYh8SiBy3XDgFB25wwj/eDlswzl1Xz/lmLT+Z4tUFl4HeBd4ckCdpQKbqxu5/AoVXOga1G/j6lNl11IP3M9paNOS1Az+Q9/x7ONl50rclhoiIrt8IQUtvlueLw68x9XqkJSZjTAISkzIN86sWdqygZSCPUx2oqBPziUrypFtivHNvYxe1wvrwUWnXbFil4DlzWEr9mseP+l8eCgzMVP0VziSGW7T+i17WYl/fGUrB+2nZ7UHxDMzPfQ84+Q7qXSciopuXPGjpc2no28tnONe5hw7O1fwejnRdFpgEJCZlKrwWAP3Lv+Vic8fxL2nMWlg8PUNTApVTxwF2G2jKGXzRmvU2G0xdRnIwdxx5TnffqPVg1pLAIcLLiTSkVScZCV5m5EmjnXETZ6qOe31S98BFOXw/VcsUERFNisRBS2+WZ2D5ftBBdwsrs9OYzVjCRJOAxKS8eeoEPOAOmPlVbMLFvpzgN1e3sY4SHuyoeZMoQndQ9SYL7nr0MkinRlG34giV6fksPJgGdmWvna06X8nxJrnL5gnwUfSOoU+BYymCfixDM1X/AOpK0In7jV4ODHp95/KOWQjCumal5CWEHCT62pXm2V+Bxe+H2xMR0c1KHLT0ZnkO+LdFs6Vl3LpOwOWqDhTm5YRdg71jQcUpa+sLODkZ3p9FbbfttUK4cBYLqLdaHZmaVf2qtRN2Ri1ZbrteRS3hZZcSLLv7QtQ3cE++B8e+p5eHeVUCEglKHge3Nau7hR7qOrNM1f5dPX+OBHZxr28N9mb7tVnuAgq1fOTyUcxrl4Bsf6f7LiUiIrpJzD2UoHyxBJdRgiBoDBq/Rm73FbSqpkHLOByimPsjTp1/xnHkDqKxvz712vJ/heO+k81M20REt8BIdw9NGpOAxKR8sagWiTEGLEJdPims32TAotyD7fS7q2e8r8+/S2mJAQsRUYrY0pKgJCIiovSwpSVBSUREROm5FUGLSUBiUhIREVF62NKSoCQiIqL0GAYtQ7I8e9md23WPM5bm2SQgMSmzzM++3D/vUP+6mDFghshMdmiRjWNR482o27K7s1TfFvJdUokmG8WOcW1MNIrDc2UREQXMW1qGZHmeml0JB5jbuJetAf1NAhKTMsvmt4/hOv1z7vSvG+XuGhXojJA9+TqyQ2fpWBr/Aiy3gKUlveK2UYP2zXkB29ABmbusVY95RxYRGTMMWgyyPGeYSUBiUqZiUFZixctMrOuWKp05cWLqRm1piM2eLM/Um43ar7mO7NBZOhYvU/U/6PnbqOlHK4nSOoTf60EtLf7oyv1jyrg6InqRjdSnpTfLM3B5fpDZy0MmAYlJmYpBWYnVidmK5NEpu8jbKgP0sDq/5UWtrydMvBOXPbl/NmrfdWSHztKx3GZeAGzZqNmWbvUyvNyzVvU+n0Gtg0RE/YwQtPRmecbMPWyEl462cPfyC2QpbjEJSEzKdAzIStzYBeqRyztyEgiDkLi6q4jJnjwoG/W1ydKx3GJeACxfrkLdhVNw4LaueLlHjTycK8v0P2HLl72WV/MyLf0ezbg6vTkRvdiSBy0Gl4Zemurq8JIyk4DEpLx5zQxlJVZ9SGKyQw/KRi3Gnx06S8dyu3ktLfmaBBAW7JoEkqYtLYOs/Vf5zEoy/TOcRUgwpOZlOv5HzMfV6c2J6MWWOGjpzfLs31m0F2ZIPIJ73pMIOlUmAYlJefNishKvrQOlSvtE3aygFFTG1V3JoOzJKogY3D9m/NmhlSwdy+3Vbmmpo1CoSxDBjrVEdH0SBy29WZ5ncG9jBVNPg1ueJXpZvo++iaBTYhKQmJQ3Ly4r8RqqZQlpghO35WLTAWxLnbDj6tRJ3V8f3nkj0/BOjcOyQ3cFEWE2ajH27NBZOhbReM3PQn38Hzpj9e269dnrh5vw1qFG0f8MLLsm30t/PnqJD/iBfMalrs81EFdHRC8y5h5KUJISXJpJert0jJGzQ2fpWG4vNVYO1oFdVBlIENG1uhVBy507d4wDk2EljV+z8iGcuXcyccLL0rEQEVEntrQkKImIiCg9I43TMmlMAhKTkoiIiNJzK4IWk4DEpCQiIqL0sKUlQUlERETpMezTosZiOcD5pV5UVALFjUg+InFx+BgH+kHTy1u4H7nvmX1arkYN4vUAj3BsMAiGup00X1O3Ao/xrpphVC6ZvBoM5ob3S0REt4Z50LJ3gZkwaWL3MnC09xBHWMZWNFKJ4N1DN+kabgU25N3+Wk07aJHXX9zHajUYcI6IiF4EhpeHhmR5vjjE11MrAwOWtJkGJMPKm9ceCM6fkmVl9lo/9LadA3dFsyC3B5bzsz8Hw7AHj4nus/N4ipWKTNHnHaAjU3WCYd4HbRdmsPaPLRiozHuNXl0wpLzedikyOvDAYwlem1oXnZcqbxuVLTrIjt01GN+or4+IiBIZqU9LT5bnb9UloQs8ZpbnMQtGfvWnZEkPa8iXLLh627Jr6ROtOiGXIlmQXVgl/0SrhmRvZ91dQ9UbcVYvikZRjS4b2W7HRjt/8iAS/ESOQ2Vddr2ReYeJ2U7lFnIdLC76KQ7W1gtYdFz/0pmXdyhI3qe3PQ5aXOKOxX+v5WlhW8HrlHpHateq3voaynq7eiRNwqivj4iIkhohaOnN8nzx/BLPzp9heoVZnrNjEc6j9uWRtaqcaHflVNrch7sZzXosJ+tHm3D3hzUPqDw99ciga/5Jfmgfm+YZTk8irR65vJz8a96hxBq2nQpOglQFEjQ8Mkl4Y3QsC3AkoPNfpwRu4QuW9eGQ/7OQMAXnanbU10dERIklD1oGZHmemn0d9/TK5ZencPmtP58FJgGJSTlZFjKTvXjBcXUrRHsyGXHWZLvFQkHCM3OjHkuc63hOIiLqlTho6c3yDMzcu4upcxdBoueL5xLEvKQXMsAkIDEpJ0sN+UjHC5UhGutyJp1fheXut/t4iOa+C2s1iHBOvSzdSrPyAPaJP69aHdZR6uiv4fWBGZZpUe1vx0l+uWTIdt6+VQtLteq3uET7rXRRfV68wxz1WOJcx3MSEVFfiYOW3izPyjLur0zhqe7TcnD5ctjqkgUmAYlJOSlU3xP7pADHKulLFipDdFn/+p/H9rq+rBLWrYeXi+ZXN3GaD9ZvwlmU4EcHBGtV1V8jul0ZLe9J2x10ezNHq8tPFkp6nT+ZdFaN2a5RhKWiqRP/Ek1jtybzNqwwgJrHqtXOjl2y3PZrH3gsfsfjaNbhMCDz9qfWBx1/1fsbvC+jvj4iIkqKuYcSlGnLxu3ERERE6Rjp7qFJYxKQmJQ3z//1H/yCL1k2AxYiIrq12NKSoKRxUgGZutOmv0KdnVmJiKjTrQhabt+IuERERC+eW3F5yDQgGVYSERFRetinJUFJRERE6RlDlmezDNDs03IVDagbh2xrF/ur1chotkM0XgOO/4/M/D2w8SUw568mIiKaROYtLSoQ2fKH6d/aWsHslF6vxNVlgElAYlKmpnkGWLM4dyXuSBKwfPceUJKYtCTlZx/qCiIioslkGLTEZXkekgE6A0wCEpMyNV60ApzBTxBoZO1L4K0f6QUzlSUgl5Oy4pdq6hjwtgks6fVhXWRddLslmSciIhqnkfq09GR5joirS4tJQGJSpkENQZ/L11DLW7BrKjFfkgzCnwJliSDK7wJvvqPXDbZ9DKhE0rbESK2WTFKe5tXFKV/RAhbqnXXFc+BY5lX+n3A7mRZsBi5ERDReIwQtvVme2+Lq0mMSkJiUaVirtuA6BThuHYVCXQKCJCPi/miky0OOBByeeQk+pDhrqlw/QE0ikzDRsdQ9cmTdrl4W4XbClrqTHa8hhoiIaCySBy1xl38yeGlIMQlITMo0qJYWP+9NHrVaHrlELS0BCV5mXHV96WokgjHtUjPPTr9ERDRmiYOWflmeA3F1aTIJSEzKNIQtLXUHBcc1bGl5Anz0WiRI+RQ4luIKgcT8KrBYi/RxaQIPbKCwrpeFal0JFPPy+E3zIIeIiGiYxEFL/yzPvri6NJkEJCZlWvx+uOp/piHAq8DP3wMeq/4suk/LxkNdN5jqiKuG1bctvx9Lx7LsWvVdUf1YvM62un9LdKh9R9YFHXFPJYA53tYVREREY8DcQwnKdDRRKe5jznJxlmSMlpuk7iCSgKUs3ySmCyIiouvC3EMJS+qiA5YTvahuP2pV9TwREdEYsaUlQUlERETpGWmclkljEpCYlERERJSeWxG0mAQkJiURERGlhy0tCUoiIiJKzxiyPCvR+mksb91H953P7NNCREREV2He0hKXyfnIxeVdXbcyhad7R7oiG0wCEpOSiIiI0mMYtMRncr54LjHNS3phZgbTeI4LvZgFJgGJSUlERETpGalPS3cm55l7L+Py4CEePlTTAS5fjgQ4GWASkJiURERElJ4Rxmm5wOHeBWY6Wl6OcIRlLHsrLnB0BCz7CyH2aSEiIqKrSN7S0ieT85H7tbqCpMnM84tMXR4yCUhMSiIiIkpP4qClXybnl6aivXIv8Dx6l1EGmAQkJiURERGlJ3HQ0i+Ts+re8tTrz8I+LURERHQ9mHsoQUlERETpGenuoUljEpCYlERERJSeWxG0mAQkJiURERGlhy0tCUoiIiJKD1taEpRERESUHra0JCiJiIgoPYZBi8riHNzSrKfHhx0DyB3tBXWPcZilkeWESUBiUrY1UVnKIZfTU7Gh1yuqrojomliNYvt59LRUaerKaxLu82rHmcst4boPlYiIKGDe0hKb5XkPT6dWdN1dXH7RGdCkzSQgMSlDDQc7my5arZY/Vdd0hTKP7eMqomtirVXhOgU4rn4umcrug+sNBmSfaj/1gl420ec4XWdBVw4jgVyxIv8nIiIanWHQMjzL83SYQHEZ1vSlekhmmAQkJqXSKOaQy9dwYlu6taHdWtGsLPWs83itFEsoFoP6HDoaZ3osYG5ez8ozFfU20e38fQUtHcFjovvtbA0qVioyGYQNHS0qA1pS5DHqOOa3q9hWx9msYCmyf+89kmWvxcirs2DXbFjB8y5FApiB+wuOX62LzkvVsPdz2Gto/l6OqTzkMyAioqwZqU9LT5bnvwGehVHKEdzzZ7j8Vi9mgElAYlIqa9UWWvUCFp2gpaXdqjK/fdy/BcNrpQBqKOtt6kAp2vJwCtsKTrI5lCxbP6c6WZdgha0bLqySfxJW+2q3dKyhKnXOol4UjaIFtxzZbseWvQwjwU9JtvO2UVMZrhUNhPRxStDWYX4bx/ICFxctzMri2rr//hyriEbVqWMrOO3nPd6GH5PF7U+1WKnWHMg+g9ci9Y7Uxr6fw14DERFNqhGClgtcXE55Q/eHlu/j7uWB7tNyBExP64psMAlITMqrWYBjB+HNLOS0inO95NV1XB6ydCvFPtzNR35rhkdO5I824e53Nx10a2AXdbSvWvkBgBdExGme4fQk0iKSy0tgUMNueMbXx9nvupIKTsoSHKntJGh4NGxfytD9Kf4+/dciwVn4oga8nybPOf+PEkiVIu8PERFNguRBS9elocDy/aC/yxasKWDqJV2RASYBiUl5U9aqdSy47ZDmJi2ELUjtqefkvlYdeMJfLBQQafAZymh/CV3HcxIRUfoSBy39sjx3uDjEF5cv417MQ26aSUBiUt6Yxi5OrVlgfhWWux+5jKQaX1xYq0ErximC2KZZeQD7xJ9XLRLrKHX05fD6wAzrxKH2t+OYX0ppFMM7nbznVy0s1arf4hLtt9JF9XnxDiXp/kyYPCf7tBARTaTEQUu/LM/q7qHwVuiDS9y93/2AdJkEJCalnO38DqF9O+K2O77mazXk9eUJ78QoJ3fLrsHWfStUfxP7RB6jTuxhnf94bwovr8xje11fctGT5a6Hl4vmVzdxmg/Wb8JZ1M8pdWtV1Zcjul1Z3+UUc5ze5ScLJb3On9qdX3uOM+jb4tVJxHTiX6Jp7Mp6dYkmjArmsWrthK+jZLm65SNmf/JOqc7FHfsMni/u/Yx9TiIimmTM8pygJCIiovSMdPfQpDEJSExKIiIiSs+tCFpMAhKTkoiIiNLDlpYEJREREaWHLS0JSiIiIkoPW1oSlERERJSeBEFLNNPzHo702sDF4eOBdWkzCUhMyizrzEXUqX+duvV5tOHtG8Xk2/nHoG4/Hm2fg4xyLNnxBPgoB5RfA870qqiGrC+r+i29Iqvku6QSYjb8nFRJBHmqvKlrbJ9G8ZpuVZfjVPtLeqxElD7zoOXIxeVdPertyhSe7kVCE29Aubv96zLAJCAxKbOsMxdRp/51amj/BNmoPf4YL+H4Lqb/6jcreKDGiVGj07oWSmM5W4x4LFnS+BdguQUsLekVEWcfAt+9B5SkfsMCPvlUV2TROVzMeYGXGhPRmHwvSqi3Ry4Oc1L51qrHkRQWY6SynCdKcU5EWWEctKhMzuHQ/DMzmMZzBCkSVa7EcEC5mXu4i68z1dpiEpCYlKnQvwr7tlKE2ZVlkl+pHQP/x9SN2uqhRt1tJ2GUqWuwuuD52s/v/1Ju7gPlYBz9+W2UsXvl1pH+x+Jr77/zuDwd72f0l3zwOtS66Lyulmfol237Sta+BP5Bz3d7ItNbP/Ln596R/+3681nU9KOVc1cO1TDI8D4jy8ZJLa/f08h7HX5G0fdf6O90sdj+DIMRmYeLfn693wf/8+z3uffnf8fkcZXI9ynypQhakNSq6Lwv+jfT/Roixyl/txVvW/94Y58z+vceOX7vcUtFFNX+5Pka+m9D7TOuztPxnNHjJ0qPcdAyc+9lXB4El4cOcPnyvTD/0LeXl3rO99IU8DyIaDLAJCAxKVMxu456kEyxo5VC/nGzXJSDk3bZRd4O8jjH1fktL2p90h+b83P9WnJUi00dBfmvrjNe+y07i1h0/GSP566czSJmLflRbnquGaD/sQQiCSi9jNxB1mx5XwZmgFavY0BWae8k0z/b9rX5rvM9w/dl6ncJKWVB8FGzLd3qZfa+eN9BlRm8ELS0RFpVVEuIrOtpHVRJOeXzrJ0Gn6GLTaM0EF2fn/o7CkZz7mh18b8DJn8X6vjrhRPYO+3vk2uVwhN+kA2+lvdHgPa+M7v+5a/ODOx+glT/z7rrOOXv1q4tynfZ/7uKe075g0C5HjynfG8f+OvXqi4cyGtV+1P/DngtnvK+ufuYjalrqmN5EPk3RO3rur/zRAbMLw9JEPLySpAUcQUvh+0s2WcSkJiU6TiTf6D0rx31y1SvVfmJUI9c3pF/fMN/bOPqrmLNln+42r+82r8Q12A7pyiFyw049gLK19K2rw08FnVCqfonQPVLMZpxetSs0iNn237xecGHfLkKdTkBFhw5gV/TJZ2IQjm4jDSPuYXT4QFw9+cnwc8jCarHoX0s6mkf6RN+W0ECCT+7unxnquqx3RnY1Z9nHf6X8BzuQrkjeOv3d9v7nL5dndLD/15HLDgIEqIX1iM7VgbWybGo1Bjh34pKlXGCHX7nKWXGQcuR+zXaqZ1l5vlFGLa8NDWl53zfXsbnVLxpJgGJSXnzun/tqBaNtKhfgQ7m5Jdo8Msr+g/0/HYZC7b/q7dZKeE0bN1QLSuWnvMluYzQX/yxeFTAolqbuvpJTEwG6O93vmf4TqY5fzZLvJaWvIR+eTmp1VRAeJt+jS8m68NzjRrFzpbAAd3bkglbwdqTHywRpcc4aOkMTC7wPHJFaEbFMGEnliN8jZeRpZSJJgGJSXnzVAdHC8G/iyoYCH9Bra0DpcjdFnKSLgWVcXVX0vnLy12PBgRBa0ulp5VlfhU4C1sz1C/N9XYrkOcrCULKyBUP9bKJmGMJAhZ9uapZKfon0lGzSqvtuoKizmzbyiivIcarMn3uzwKqE658phnUbmmRgNo7yV1/S0tiPZ+7agkM2yw9p0FzTaOI4MrRcCfynY98m1SLjrXaEST3UhnYu/p0qZZRr5VjFtZppM7477aJs9OF9g+BhoPI1eAR9WaKJ8oElTDRaPrTb1sf/PKXrV/q6d//V7T+T63ffhDUfdD67Z+idf50cXGR2qR88803YylvmussqoSW/lQotApSLjquX1kvtOtQaDneYwutemyd23IWg/XtqeBtZEJtr/fRzXVai/Jc4fGFovtcbPVUt/63vK7/0Wf9MP2PRc6hHa+tY5/6GHvr6t5727Fd9E3peD+76jwjvIb637dav5TzfDjJ8hNd1/qq1fqw3/rscR35ftWdViHBi4/7jHrr9Hcq/Oz8x7b/NgZ8H6M6PnfZXo6572e/6LQcb//Dn7NeWGwVZAqOsb1Nn78xed7w3en+Dg6sk793eX7/GIc8Z/T7KX8TBfVY+Y6G76X6vnqPUc/X9Vz96rzvd+/fRM/XnuiGMctzgpKU4NJMpM/MVTV+jdzuK2hV7+kVpq7hWEY18muYfGqsHNUQtItqNi+1XRM1jsyZfb0tS957W83A95soI25F0HLnzh3jwGRYSePXrHwIZ+6diT7hvQivgcypvjxWcIlJXRYb2wevAnHV6dVfWnRc9iMhimBLS4KSiIiI0mN+y/MEMwlITEoiIiJKz60IWkwCEpOSiIiI0sOWlgQlERERpSdBnxaV5fkA5974LNNY3rofGYslqJvC7MoG7vUZWI59Wq6iAXUTgW3tYn9Vj/Y61KdA+cd6/mdA6aGeJyIimkzmLS0xWZ4vDr/w6lZmO0fGzQqTgMSkTM0ICenwybvAhsSjQZbgjz7UFURERJPJOGiJy/I8c28DQZLnLDIJSEzK1HjRispC1B4dd6i3vmwP+z73pp9wb4jKEpDLSVnxSzV1ZHZtAkt6fVgXWRfdbknmiYiIxsk4aInL8px1JgGJSZkGL318R26XSFp9U59/IEGLBC5DbB/Dy21kS4zUaskk5WleXZzyFS1god5ZVzwHjmV+UerD7WRasBm4EBHReJlfHmKWZ/1sN0ulo3edAhw3yO2ScHTMz7eAI4k21lQyGzOOBByeeQk+pFBpWZoSgNQkMgkywqq6R46s29XLItxO2FJ3suM1xBAREY2FcdASl+U560wCEpMyDaqlxbJrsK08arU8cklaWhqv+QHLz9/RK65IIhjTLjXzGcxITEREk804aInL8px1JgGJSZmGsKWl7qDguOYtLZ/kgO/eawcsn2z55YhUpubFWqSPSxN4YAOFSPJh1boSKObl8ZvmQQ4REdEw5rc8Xxzi8cE5glhlenkr7Hx7cfgYB/690Frvrc/MPTS65Anporc7B4bf9qw64gY5T+ryrTjrWl5TnW4tlZDfV6jDPx69flOCFltfIlqU+eNtf56IiGgcmHsoQZmOJirFfcxZLs6Mx2i5YTpoKavARq8iIiIaN2Z5TlhSl67WF3X7Uauq54mIiMaILS0JSiIiIkqP+S3PE8wkIDEpiYiIKD23ImgxCUhMSiIiIkoPW1oSlERERJSeBEGLyuQcDOO/h3a6ROUIe976fnXpMwlITMrbLshN5OUZauqVWlwdERHROJgHLTFZno/2nmIqGOJf1T0+zNRouSYBiUl526ncRCqvkMpP1C2ujoiIaByMg5a4LM/L9yMDyam66OC5GWASkJiUqWi0WzCCqaFuM1bzS94dx/1bOfptp6uUYlddkNww+lxqYqsJERFlhXHQYpzl+cjFs6mZTGWANglITMo0qOHwnUjWZZVNWY2NrzIrO2V/mPztR/569bhg8Lm+22kqYDl1dJ1MTqQyaDHxpjpgP/ADIyIiorSZXx4yyfJ8tIeHT6fwenT8/gwwCUhMyjRYKrOypVs+oqPOSnAyt+u3hDT3gRN53GpktNyB2zWAmhTlyBD7KlAJhtxX2ZzDlhYJfIiIiLLCOGgZluVZ5R9SAcvKxoAWmBSZBCQmZRq6+4rkJZgILtms2cCOBCQPdnqTE8Ztp5pdZvVsBwloLHnOsIWmrtcTERFlgHHQEpfl+WjvIQ4u72JLByxHe9m6g8gkIDEpb5wEGarviuqLUlVBhA5C3HOv1otSyrLi5ATYXNXrlLjt1mReHu9EOrh4rStFKc9kIdJiUyn5JRERURaMIcuzut35CM+8tYFpLG/dh04C7WHuoRGo4MOK5PUR3dmTVcBh7UhAchxpaRm2XZ96L4uzlNFMz06QtVkCGbcs++lzuch73rn+l5KY6ZmIiMaJuYcSlFmkgoydTQYHRET04jPviDvBTAISkzJLgluWVavIiS3Lkcs9RERELyK2tCQoiYiIKD1saUlQEhERUXpuRdBiEpCYlERERJQetrQkKImIiCg9Cfq0qCzPBzj37nnuvaVZDS534FVOYXYlkotIY5+Wq2igWFQj3O5if7UaDtVv5OxD4PFvgY0vgTm9joiIaAKZt7TEZHn2AhY1uJw3xP9dXH7BLM9jpUZ9s2Zx7krckSRgwRPgM9loaUkvExERTS7joCUuy/PMvQ1s+SPNZZJJQGJSpsaLVoAzWP2H3x/k8w+A5Yd6Ybggw3Mlkn+o41ZqPdJuR11kXXS7IGs0ERHRuBgHLcOzPKuRcVXdU0y9nq38QyYBiUmZhkYxh1y+hlregl2zYeWK3vD8w30qH4kF/INeNKDyFanh/u0g95CUp3k/HYBSlKdbqHfWFc/hZZxelPpwO5kWbAYuREQ0XgmG8T+SsGQZy140coGjI/kR7y90keDl8XNYXYkT2adldM1KEfur63AdoFr1cjUP19gCXn3o92OJzg+hBq2zJPgI+s0Ey6v7vekCvBQCKlBRAYoENJuR7fqmFyAiIroC45aWYVme25ZhTV/iIkOdWkwCEpMyDaqlxbJrsK08arU8cqYtLd/9B/BYIo6yTMdqXgKXq1owD0Dm2emXiIjGzDhoGZzlWd1V9BiHYZBy5GUT/pt+jTApMQlITMo0rFVbcJ0CnLqDguOi1ap6iQ2HeqsFlPS09DNgw7xvSz/zq8BiTfdjUZrAAxsorOtlYTt6RhTz8vhNtrIQEdH4jCHLsxLN9Jy9W54nNsuz1lD3O0twsIsqTK8O+Z4AH/0A+E7NS+BSig9cohmeVdbns67lta7s0IU6/OPR6zeDrNCCGZ6JiGjcmHsoQZmOJirFfcxZLs6SjtFyU3TQUlaBjV5FREQ0brciaJn0lpZM62p9Ubcftap6noiIaIzY0pKgJCIiovSYj4g7wUwCEpOSiIiI0nMrghaTgMSkJCIiovSwpSVBSUREROnJ/eUvf7mRPi1EREREowP+P7l99vvV8nVpAAAAAElFTkSuQmCC;" vertex="1" parent="1">
          <mxGeometry x="50" y="25" width="667.1" height="1030" as="geometry" />
        </mxCell>
        <mxCell id="kdmqwW39wh9tZSWkGwI6-2" value="" style="shape=partialRectangle;whiteSpace=wrap;html=1;bottom=1;right=1;left=1;top=0;fillColor=none;routingCenterX=-0.5;rotation=90;strokeWidth=4;strokeColor=#33FF33;" vertex="1" parent="1">
          <mxGeometry x="-55.62" y="478.13" width="556.25" height="50" as="geometry" />
        </mxCell>
        <mxCell id="kdmqwW39wh9tZSWkGwI6-3" value="" style="shape=partialRectangle;whiteSpace=wrap;html=1;bottom=1;right=1;left=1;top=0;fillColor=none;routingCenterX=-0.5;rotation=90;strokeWidth=4;strokeColor=#FF0000;" vertex="1" parent="1">
          <mxGeometry x="-251.25" y="516.25" width="830" height="50" as="geometry" />
        </mxCell>
        <mxCell id="kdmqwW39wh9tZSWkGwI6-4" value="" style="shape=partialRectangle;whiteSpace=wrap;html=1;bottom=1;right=1;left=1;top=0;fillColor=none;routingCenterX=-0.5;rotation=90;strokeWidth=4;strokeColor=#0000FF;" vertex="1" parent="1">
          <mxGeometry x="145" y="75" width="60" height="20" as="geometry" />
        </mxCell>
        <mxCell id="kdmqwW39wh9tZSWkGwI6-5" value="" style="shape=partialRectangle;whiteSpace=wrap;html=1;bottom=1;right=1;left=1;top=0;fillColor=none;routingCenterX=-0.5;rotation=90;strokeWidth=4;strokeColor=#CC00CC;" vertex="1" parent="1">
          <mxGeometry x="138.75" y="1006.25" width="72.5" height="20" as="geometry" />
        </mxCell>
        <mxCell id="kdmqwW39wh9tZSWkGwI6-6" value="&lt;span style=&quot;font-size: 20px;&quot;&gt;&lt;b&gt;&lt;font style=&quot;font-size: 20px;&quot; color=&quot;#00cc00&quot;&gt;24&lt;/font&gt;&lt;br&gt;&lt;font style=&quot;font-size: 20px;&quot; color=&quot;#00cc00&quot;&gt;x&amp;nbsp; &amp;nbsp;4&lt;/font&gt;&lt;br&gt;&lt;font style=&quot;font-size: 20px;&quot; color=&quot;#006600&quot;&gt;+&amp;nbsp; &amp;nbsp;3&lt;/font&gt;&lt;br&gt;&lt;font style=&quot;font-size: 20px;&quot; color=&quot;#00cc00&quot;&gt;-----&lt;/font&gt;&lt;br&gt;&lt;font color=&quot;#00cc00&quot;&gt;99&lt;/font&gt;&lt;br&gt;&lt;/b&gt;&lt;/span&gt;" style="text;html=1;strokeColor=none;fillColor=none;align=right;verticalAlign=middle;whiteSpace=wrap;rounded=0;" vertex="1" parent="1">
          <mxGeometry x="133.75" y="430" width="60" height="130" as="geometry" />
        </mxCell>
        <mxCell id="kdmqwW39wh9tZSWkGwI6-7" value="" style="line;strokeWidth=3;html=1;perimeter=backbonePerimeter;points=[];outlineConnect=0;strokeColor=#006600;" vertex="1" parent="1">
          <mxGeometry x="212.5" y="260" width="77.5" height="10" as="geometry" />
        </mxCell>
        <mxCell id="kdmqwW39wh9tZSWkGwI6-8" value="&lt;span style=&quot;font-size: 20px;&quot;&gt;&lt;b&gt;&lt;font color=&quot;#00cc00&quot; style=&quot;font-size: 20px;&quot;&gt;99&lt;br&gt;&lt;/font&gt;&lt;font style=&quot;font-size: 20px;&quot; color=&quot;#ff0000&quot;&gt;+&amp;nbsp; &amp;nbsp;12&lt;br&gt;x&amp;nbsp; &amp;nbsp;4&lt;/font&gt;&lt;br&gt;&lt;font style=&quot;font-size: 20px;&quot; color=&quot;#990000&quot;&gt;+&amp;nbsp; &amp;nbsp;3&lt;/font&gt;&lt;br&gt;&lt;font style=&quot;font-size: 20px;&quot; color=&quot;#ff0000&quot;&gt;-----&lt;br&gt;447&lt;/font&gt;&lt;br&gt;&lt;/b&gt;&lt;/span&gt;" style="text;html=1;strokeColor=none;fillColor=none;align=right;verticalAlign=middle;whiteSpace=wrap;rounded=0;" vertex="1" parent="1">
          <mxGeometry x="73.75" y="430" width="60" height="130" as="geometry" />
        </mxCell>
        <mxCell id="kdmqwW39wh9tZSWkGwI6-9" value="" style="line;strokeWidth=3;html=1;perimeter=backbonePerimeter;points=[];outlineConnect=0;strokeColor=#990000;" vertex="1" parent="1">
          <mxGeometry x="180" y="160" width="216.25" height="10" as="geometry" />
        </mxCell>
        <mxCell id="kdmqwW39wh9tZSWkGwI6-10" value="&lt;font style=&quot;font-size: 20px;&quot;&gt;2&lt;/font&gt;" style="text;html=1;strokeColor=none;fillColor=none;align=center;verticalAlign=middle;whiteSpace=wrap;rounded=0;fontStyle=1;fontColor=#0000FF;" vertex="1" parent="1">
          <mxGeometry x="120" y="65" width="60" height="30" as="geometry" />
        </mxCell>
        <mxCell id="kdmqwW39wh9tZSWkGwI6-11" value="&lt;font style=&quot;font-size: 20px;&quot; color=&quot;#ff00ff&quot;&gt;6&lt;/font&gt;" style="text;html=1;strokeColor=none;fillColor=none;align=center;verticalAlign=middle;whiteSpace=wrap;rounded=0;fontStyle=1;fontColor=#0000FF;" vertex="1" parent="1">
          <mxGeometry x="120" y="1000" width="60" height="30" as="geometry" />
        </mxCell>
        <mxCell id="kdmqwW39wh9tZSWkGwI6-13" value="&lt;b style=&quot;font-size: 20px;&quot;&gt;&lt;font style=&quot;font-size: 20px;&quot; color=&quot;#009999&quot;&gt;Total:&amp;nbsp; &lt;/font&gt;&lt;font style=&quot;font-size: 20px;&quot; color=&quot;#0000ff&quot;&gt;2 &lt;/font&gt;&lt;font style=&quot;font-size: 20px;&quot; color=&quot;#009999&quot;&gt;+ &lt;/font&gt;&lt;font style=&quot;font-size: 20px;&quot; color=&quot;#ff0000&quot;&gt;447&amp;nbsp;&lt;/font&gt;&lt;font style=&quot;font-size: 20px;&quot; color=&quot;#009999&quot;&gt;+ &lt;/font&gt;&lt;font style=&quot;font-size: 20px;&quot; color=&quot;#990099&quot;&gt;6 &lt;/font&gt;&lt;font style=&quot;font-size: 20px;&quot; color=&quot;#009999&quot;&gt;= 455&lt;/font&gt;&lt;/b&gt;" style="rounded=0;whiteSpace=wrap;html=1;strokeWidth=3;strokeColor=#009999;" vertex="1" parent="1">
          <mxGeometry x="430" y="90" width="270" height="40" as="geometry" />
        </mxCell>
      </root>
    </mxGraphModel>
  </diagram>
</mxfile>
